<?xml version="1.0" encoding="utf-8" standalone="no"?>
<!DOCTYPE svg PUBLIC "-//W3C//DTD SVG 1.1//EN"
  "http://www.w3.org/Graphics/SVG/1.1/DTD/svg11.dtd">
<svg xmlns:xlink="http://www.w3.org/1999/xlink" width="648pt" height="432pt" viewBox="0 0 648 432" xmlns="http://www.w3.org/2000/svg" version="1.1">
 <metadata>
  <rdf:RDF xmlns:dc="http://purl.org/dc/elements/1.1/" xmlns:cc="http://creativecommons.org/ns#" xmlns:rdf="http://www.w3.org/1999/02/22-rdf-syntax-ns#">
   <cc:Work>
    <dc:type rdf:resource="http://purl.org/dc/dcmitype/StillImage"/>
    <dc:format>image/svg+xml</dc:format>
    <dc:creator>
     <cc:Agent>
      <dc:title>Matplotlib</dc:title>
     </cc:Agent>
    </dc:creator>
   </cc:Work>
  </rdf:RDF>
 </metadata>
 <defs>
  <style type="text/css">*{stroke-linejoin: round; stroke-linecap: butt}</style>
 </defs>
 <g id="figure_1">
  <g id="patch_1">
   <path d="M 0 432 
L 648 432 
L 648 0 
L 0 0 
z
" style="fill: #faf8f3"/>
  </g>
  <g id="axes_1">
   <g id="patch_2">
    <path d="M 77.65632 173.74464 
L 570.34368 173.74464 
Q 604.55808 173.74464 604.55808 167.86944 
L 604.55808 106.76736 
Q 604.55808 100.89216 570.34368 100.89216 
L 77.65632 100.89216 
Q 43.44192 100.89216 43.44192 106.76736 
L 43.44192 167.86944 
Q 43.44192 173.74464 77.65632 173.74464 
z
" clip-path="url(#pbc81b70f9b)" style="fill: #e9eeea; stroke: #cad8d0; stroke-width: 1.1; stroke-linejoin: miter"/>
   </g>
   <g id="patch_3">
    <path d="M 77.65632 271.66464 
L 570.34368 271.66464 
Q 604.55808 271.66464 604.55808 265.78944 
L 604.55808 204.68736 
Q 604.55808 198.81216 570.34368 198.81216 
L 77.65632 198.81216 
Q 43.44192 198.81216 43.44192 204.68736 
L 43.44192 265.78944 
Q 43.44192 271.66464 77.65632 271.66464 
z
" clip-path="url(#pbc81b70f9b)" style="fill: #e9eeea; stroke: #cad8d0; stroke-width: 1.1; stroke-linejoin: miter"/>
   </g>
   <g id="patch_4">
    <path d="M 77.65632 369.58464 
L 570.34368 369.58464 
Q 604.55808 369.58464 604.55808 363.70944 
L 604.55808 302.60736 
Q 604.55808 296.73216 570.34368 296.73216 
L 77.65632 296.73216 
Q 43.44192 296.73216 43.44192 302.60736 
L 43.44192 363.70944 
Q 43.44192 369.58464 77.65632 369.58464 
z
" clip-path="url(#pbc81b70f9b)" style="fill: #e9eeea; stroke: #cad8d0; stroke-width: 1.1; stroke-linejoin: miter"/>
   </g>
   <g id="text_1">
    <!-- 01 -->
    <g style="fill: #127b79" transform="translate(80.1716 142.273634) scale(0.17 -0.17)">
     <defs>
      <path id="NotoSansCJKjp-Bold-30" d="M 1888 -90 
C 2854 -90 3494 755 3494 2394 
C 3494 4019 2854 4826 1888 4826 
C 922 4826 282 4026 282 2394 
C 282 755 922 -90 1888 -90 
z
M 1888 646 
C 1478 646 1171 1056 1171 2394 
C 1171 3712 1478 4102 1888 4102 
C 2298 4102 2598 3712 2598 2394 
C 2598 1056 2298 646 1888 646 
z
" transform="scale(0.015625)"/>
      <path id="NotoSansCJKjp-Bold-31" d="M 525 0 
L 3373 0 
L 3373 768 
L 2483 768 
L 2483 4742 
L 1786 4742 
C 1485 4550 1165 4429 685 4346 
L 685 3757 
L 1549 3757 
L 1549 768 
L 525 768 
L 525 0 
z
" transform="scale(0.015625)"/>
     </defs>
     <use xlink:href="#NotoSansCJKjp-Bold-30"/>
     <use xlink:href="#NotoSansCJKjp-Bold-31" x="58.999985"/>
    </g>
   </g>
   <g id="text_2">
    <!-- LLM -->
    <g style="fill: #172c35" transform="translate(341.132681 130.688072) scale(0.18 -0.18)">
     <defs>
      <path id="NotoSansCJKjp-Regular-4c" d="M 646 0 
L 3290 0 
L 3290 506 
L 1235 506 
L 1235 4691 
L 646 4691 
L 646 0 
z
" transform="scale(0.015625)"/>
      <path id="NotoSansCJKjp-Regular-4d" d="M 646 0 
L 1178 0 
L 1178 2598 
C 1178 3002 1139 3571 1101 3981 
L 1126 3981 
L 1504 2912 
L 2394 474 
L 2790 474 
L 3674 2912 
L 4051 3981 
L 4077 3981 
C 4045 3571 4000 3002 4000 2598 
L 4000 0 
L 4550 0 
L 4550 4691 
L 3840 4691 
L 2944 2182 
C 2835 1862 2739 1530 2618 1203 
L 2592 1203 
C 2477 1530 2374 1862 2253 2182 
L 1357 4691 
L 646 4691 
L 646 0 
z
" transform="scale(0.015625)"/>
     </defs>
     <use xlink:href="#NotoSansCJKjp-Regular-4c"/>
     <use xlink:href="#NotoSansCJKjp-Regular-4c" x="54.299988"/>
     <use xlink:href="#NotoSansCJKjp-Regular-4d" x="108.599976"/>
    </g>
    <!-- 가설·수식 제안 -->
    <g style="fill: #172c35" transform="translate(301.4694 154.152478) scale(0.18 -0.18)">
     <defs>
      <path id="NotoSansCJKjp-Regular-ac00" d="M 4237 5293 
L 4237 -493 
L 4768 -493 
L 4768 2502 
L 5690 2502 
L 5690 2944 
L 4768 2944 
L 4768 5293 
L 4237 5293 
z
M 621 4672 
L 621 4230 
L 2746 4230 
C 2624 2861 1824 1754 352 1011 
L 646 602 
C 2522 1536 3277 3027 3277 4672 
L 621 4672 
z
" transform="scale(0.015625)"/>
      <path id="NotoSansCJKjp-Regular-c124" d="M 4550 5293 
L 4550 4243 
L 3290 4243 
L 3290 3808 
L 4550 3808 
L 4550 2304 
L 5082 2304 
L 5082 5293 
L 4550 5293 
z
M 1370 6 
L 1370 -422 
L 5293 -422 
L 5293 6 
L 1888 6 
L 1888 621 
L 5082 621 
L 5082 2010 
L 1357 2010 
L 1357 1587 
L 4557 1587 
L 4557 1024 
L 1370 1024 
L 1370 6 
z
M 1766 5107 
L 1766 4570 
C 1766 3731 1184 3002 314 2714 
L 595 2291 
C 1274 2534 1792 3034 2035 3680 
C 2291 3104 2790 2650 3424 2426 
L 3706 2842 
C 2867 3117 2285 3814 2285 4570 
L 2285 5107 
L 1766 5107 
z
" transform="scale(0.015625)"/>
      <path id="NotoSansCJKjp-Regular-b7" d="M 1766 1875 
C 1997 1875 2195 2067 2195 2323 
C 2195 2592 1997 2778 1766 2778 
C 1536 2778 1350 2592 1350 2323 
C 1350 2067 1536 1875 1766 1875 
z
" transform="scale(0.015625)"/>
      <path id="NotoSansCJKjp-Regular-c218" d="M 2662 5088 
L 2662 4762 
C 2662 3942 1645 3245 589 3091 
L 800 2662 
C 1702 2810 2573 3309 2944 4013 
C 3315 3309 4179 2810 5082 2662 
L 5293 3091 
C 4243 3245 3213 3955 3213 4762 
L 3213 5088 
L 2662 5088 
z
M 320 2035 
L 320 1594 
L 2662 1594 
L 2662 -499 
L 3187 -499 
L 3187 1594 
L 5549 1594 
L 5549 2035 
L 320 2035 
z
" transform="scale(0.015625)"/>
      <path id="NotoSansCJKjp-Regular-c2dd" d="M 1197 1517 
L 1197 1082 
L 4531 1082 
L 4531 -499 
L 5062 -499 
L 5062 1517 
L 1197 1517 
z
M 4531 5293 
L 4531 1811 
L 5062 1811 
L 5062 5293 
L 4531 5293 
z
M 1824 5018 
L 1824 4454 
C 1824 3590 1242 2790 371 2470 
L 640 2048 
C 1325 2310 1850 2848 2099 3526 
C 2362 2893 2880 2400 3546 2150 
L 3808 2573 
C 2950 2874 2362 3622 2362 4454 
L 2362 5018 
L 1824 5018 
z
" transform="scale(0.015625)"/>
      <path id="NotoSansCJKjp-Regular-20" transform="scale(0.015625)"/>
      <path id="NotoSansCJKjp-Regular-c81c" d="M 4723 5293 
L 4723 -499 
L 5229 -499 
L 5229 5293 
L 4723 5293 
z
M 3565 5158 
L 3565 3213 
L 2611 3213 
L 2611 2778 
L 3565 2778 
L 3565 -198 
L 4064 -198 
L 4064 5158 
L 3565 5158 
z
M 410 4614 
L 410 4179 
L 1504 4179 
L 1504 3654 
C 1504 2598 1050 1542 250 1056 
L 576 659 
C 1152 1018 1562 1696 1766 2483 
C 1971 1754 2362 1133 2925 794 
L 3245 1190 
C 2451 1651 2016 2650 2016 3654 
L 2016 4179 
L 3053 4179 
L 3053 4614 
L 410 4614 
z
" transform="scale(0.015625)"/>
      <path id="NotoSansCJKjp-Regular-c548" d="M 1933 4883 
C 1075 4883 422 4294 422 3456 
C 422 2624 1075 2029 1933 2029 
C 2797 2029 3443 2624 3443 3456 
C 3443 4294 2797 4883 1933 4883 
z
M 1933 4422 
C 2502 4422 2931 4026 2931 3456 
C 2931 2893 2502 2496 1933 2496 
C 1376 2496 941 2893 941 3456 
C 941 4026 1376 4422 1933 4422 
z
M 4282 5293 
L 4282 1030 
L 4813 1030 
L 4813 3091 
L 5664 3091 
L 5664 3533 
L 4813 3533 
L 4813 5293 
L 4282 5293 
z
M 1210 1466 
L 1210 -371 
L 5069 -371 
L 5069 64 
L 1734 64 
L 1734 1466 
L 1210 1466 
z
" transform="scale(0.015625)"/>
     </defs>
     <use xlink:href="#NotoSansCJKjp-Regular-ac00"/>
     <use xlink:href="#NotoSansCJKjp-Regular-c124" x="91.999985"/>
     <use xlink:href="#NotoSansCJKjp-Regular-b7" x="183.999969"/>
     <use xlink:href="#NotoSansCJKjp-Regular-c218" x="240.09996"/>
     <use xlink:href="#NotoSansCJKjp-Regular-c2dd" x="332.099945"/>
     <use xlink:href="#NotoSansCJKjp-Regular-20" x="424.09993"/>
     <use xlink:href="#NotoSansCJKjp-Regular-c81c" x="446.499924"/>
     <use xlink:href="#NotoSansCJKjp-Regular-c548" x="538.499908"/>
    </g>
   </g>
   <g id="patch_5">
    <path d="M 324 178.000263 
Q 324 185.055048 324 189.873766 
" style="fill: none; stroke: #127b79; stroke-width: 2; stroke-linecap: round"/>
    <path d="M 327 183.873766 
L 324 189.873766 
L 321 183.873766 
z
" style="fill: #127b79; stroke: #127b79; stroke-width: 2; stroke-linecap: round"/>
   </g>
   <g id="text_3">
    <!-- 02 -->
    <g style="fill: #127b79" transform="translate(80.1716 240.193634) scale(0.17 -0.17)">
     <defs>
      <path id="NotoSansCJKjp-Bold-32" d="M 275 0 
L 3450 0 
L 3450 794 
L 2426 794 
C 2202 794 1888 768 1645 736 
C 2509 1587 3226 2509 3226 3366 
C 3226 4250 2630 4826 1734 4826 
C 1088 4826 666 4576 224 4102 
L 749 3597 
C 986 3859 1267 4083 1613 4083 
C 2067 4083 2323 3789 2323 3322 
C 2323 2586 1568 1696 275 544 
L 275 0 
z
" transform="scale(0.015625)"/>
     </defs>
     <use xlink:href="#NotoSansCJKjp-Bold-30"/>
     <use xlink:href="#NotoSansCJKjp-Bold-32" x="58.999985"/>
    </g>
   </g>
   <g id="text_4">
    <!-- 코드 -->
    <g style="fill: #172c35" transform="translate(341.6544 228.608072) scale(0.18 -0.18)">
     <defs>
      <path id="NotoSansCJKjp-Regular-cf54" d="M 947 4730 
L 947 4294 
L 4397 4294 
L 4397 4179 
C 4397 3917 4397 3642 4384 3334 
L 781 3187 
L 864 2726 
L 4358 2931 
C 4326 2528 4262 2074 4154 1555 
L 4678 1498 
C 4922 2682 4915 3475 4915 4179 
L 4915 4730 
L 947 4730 
z
M 2355 2227 
L 2355 730 
L 320 730 
L 320 288 
L 5549 288 
L 5549 730 
L 2880 730 
L 2880 2227 
L 2355 2227 
z
" transform="scale(0.015625)"/>
      <path id="NotoSansCJKjp-Regular-b4dc" d="M 320 730 
L 320 288 
L 5568 288 
L 5568 730 
L 320 730 
z
M 986 4755 
L 986 2080 
L 4960 2080 
L 4960 2515 
L 1510 2515 
L 1510 4320 
L 4902 4320 
L 4902 4755 
L 986 4755 
z
" transform="scale(0.015625)"/>
     </defs>
     <use xlink:href="#NotoSansCJKjp-Regular-cf54"/>
     <use xlink:href="#NotoSansCJKjp-Regular-b4dc" x="91.999985"/>
    </g>
    <!-- 가격·비용 계산 -->
    <g style="fill: #172c35" transform="translate(301.4694 252.072478) scale(0.18 -0.18)">
     <defs>
      <path id="NotoSansCJKjp-Regular-aca9" d="M 1216 1581 
L 1216 1152 
L 4550 1152 
L 4550 -486 
L 5082 -486 
L 5082 1581 
L 1216 1581 
z
M 3046 3034 
L 3046 2598 
L 4550 2598 
L 4550 1837 
L 5082 1837 
L 5082 5286 
L 4550 5286 
L 4550 4256 
L 3277 4256 
C 3322 4461 3347 4678 3347 4902 
L 704 4902 
L 704 4467 
L 2778 4467 
C 2675 3488 1805 2720 410 2336 
L 614 1914 
C 1856 2259 2752 2912 3136 3827 
L 4550 3827 
L 4550 3034 
L 3046 3034 
z
" transform="scale(0.015625)"/>
      <path id="NotoSansCJKjp-Regular-be44" d="M 4525 5293 
L 4525 -506 
L 5056 -506 
L 5056 5293 
L 4525 5293 
z
M 646 4800 
L 646 890 
L 3373 890 
L 3373 4800 
L 2848 4800 
L 2848 3277 
L 1178 3277 
L 1178 4800 
L 646 4800 
z
M 1178 2854 
L 2848 2854 
L 2848 1331 
L 1178 1331 
L 1178 2854 
z
" transform="scale(0.015625)"/>
      <path id="NotoSansCJKjp-Regular-c6a9" d="M 2931 1562 
C 1690 1562 947 1197 947 544 
C 947 -122 1690 -486 2931 -486 
C 4166 -486 4909 -122 4909 544 
C 4909 1197 4166 1562 2931 1562 
z
M 2931 1152 
C 3834 1152 4378 928 4378 544 
C 4378 147 3834 -77 2931 -77 
C 2022 -77 1485 147 1485 544 
C 1485 928 2022 1152 2931 1152 
z
M 2931 4768 
C 3853 4768 4422 4525 4422 4109 
C 4422 3693 3853 3450 2931 3450 
C 2010 3450 1440 3693 1440 4109 
C 1440 4525 2010 4768 2931 4768 
z
M 2931 5184 
C 1677 5184 896 4787 896 4109 
C 896 3718 1152 3424 1606 3245 
L 1606 2432 
L 320 2432 
L 320 2003 
L 5549 2003 
L 5549 2432 
L 4256 2432 
L 4256 3245 
C 4710 3424 4966 3718 4966 4109 
C 4966 4787 4186 5184 2931 5184 
z
M 2138 2432 
L 2138 3104 
C 2374 3059 2637 3040 2931 3040 
C 3226 3040 3494 3059 3731 3104 
L 3731 2432 
L 2138 2432 
z
" transform="scale(0.015625)"/>
      <path id="NotoSansCJKjp-Regular-acc4" d="M 4730 5293 
L 4730 -499 
L 5235 -499 
L 5235 5293 
L 4730 5293 
z
M 570 4557 
L 570 4122 
L 2266 4122 
C 2170 2912 1555 1875 314 1133 
L 627 749 
C 1715 1402 2342 2272 2618 3251 
L 3565 3251 
L 3565 2234 
L 2522 2234 
L 2522 1798 
L 3565 1798 
L 3565 -205 
L 4070 -205 
L 4070 5139 
L 3565 5139 
L 3565 3686 
L 2714 3686 
C 2765 3968 2790 4262 2790 4557 
L 570 4557 
z
" transform="scale(0.015625)"/>
      <path id="NotoSansCJKjp-Regular-c0b0" d="M 1741 4941 
L 1741 4230 
C 1741 3334 1178 2554 294 2240 
L 582 1818 
C 1267 2080 1779 2605 2022 3283 
C 2278 2675 2778 2195 3424 1958 
L 3693 2381 
C 2848 2675 2266 3418 2266 4211 
L 2266 4941 
L 1741 4941 
z
M 4282 5293 
L 4282 1018 
L 4813 1018 
L 4813 3072 
L 5664 3072 
L 5664 3520 
L 4813 3520 
L 4813 5293 
L 4282 5293 
z
M 1216 1427 
L 1216 -371 
L 5069 -371 
L 5069 64 
L 1754 64 
L 1754 1427 
L 1216 1427 
z
" transform="scale(0.015625)"/>
     </defs>
     <use xlink:href="#NotoSansCJKjp-Regular-ac00"/>
     <use xlink:href="#NotoSansCJKjp-Regular-aca9" x="91.999985"/>
     <use xlink:href="#NotoSansCJKjp-Regular-b7" x="183.999969"/>
     <use xlink:href="#NotoSansCJKjp-Regular-be44" x="240.09996"/>
     <use xlink:href="#NotoSansCJKjp-Regular-c6a9" x="332.099945"/>
     <use xlink:href="#NotoSansCJKjp-Regular-20" x="424.09993"/>
     <use xlink:href="#NotoSansCJKjp-Regular-acc4" x="446.499924"/>
     <use xlink:href="#NotoSansCJKjp-Regular-c0b0" x="538.499908"/>
    </g>
   </g>
   <g id="patch_6">
    <path d="M 324 275.920263 
Q 324 282.975048 324 287.793766 
" style="fill: none; stroke: #127b79; stroke-width: 2; stroke-linecap: round"/>
    <path d="M 327 281.793766 
L 324 287.793766 
L 321 281.793766 
z
" style="fill: #127b79; stroke: #127b79; stroke-width: 2; stroke-linecap: round"/>
   </g>
   <g id="text_5">
    <!-- 03 -->
    <g style="fill: #127b79" transform="translate(80.1716 338.113634) scale(0.17 -0.17)">
     <defs>
      <path id="NotoSansCJKjp-Bold-33" d="M 1747 -90 
C 2656 -90 3418 410 3418 1280 
C 3418 1907 3008 2304 2477 2451 
L 2477 2483 
C 2976 2682 3264 3053 3264 3565 
C 3264 4378 2643 4826 1728 4826 
C 1171 4826 717 4602 307 4250 
L 794 3667 
C 1069 3930 1344 4083 1683 4083 
C 2086 4083 2317 3866 2317 3494 
C 2317 3066 2035 2771 1171 2771 
L 1171 2093 
C 2195 2093 2470 1805 2470 1338 
C 2470 915 2144 678 1664 678 
C 1229 678 890 890 608 1165 
L 166 570 
C 499 192 1005 -90 1747 -90 
z
" transform="scale(0.015625)"/>
     </defs>
     <use xlink:href="#NotoSansCJKjp-Bold-30"/>
     <use xlink:href="#NotoSansCJKjp-Bold-33" x="58.999985"/>
    </g>
   </g>
   <g id="text_6">
    <!-- 검토 -->
    <g style="fill: #172c35" transform="translate(341.6544 326.528072) scale(0.18 -0.18)">
     <defs>
      <path id="NotoSansCJKjp-Regular-ac80" d="M 1350 1741 
L 1350 -416 
L 5082 -416 
L 5082 1741 
L 1350 1741 
z
M 4557 1318 
L 4557 13 
L 1869 13 
L 1869 1318 
L 4557 1318 
z
M 678 4915 
L 678 4486 
L 2714 4486 
C 2611 3507 1747 2752 384 2362 
L 602 1946 
C 2259 2419 3283 3462 3283 4915 
L 678 4915 
z
M 3296 3802 
L 3296 3360 
L 4550 3360 
L 4550 1990 
L 5082 1990 
L 5082 5286 
L 4550 5286 
L 4550 3802 
L 3296 3802 
z
" transform="scale(0.015625)"/>
      <path id="NotoSansCJKjp-Regular-d1a0" d="M 992 4819 
L 992 1856 
L 2669 1856 
L 2669 659 
L 320 659 
L 320 224 
L 5568 224 
L 5568 659 
L 3200 659 
L 3200 1856 
L 4966 1856 
L 4966 2285 
L 1530 2285 
L 1530 3149 
L 4781 3149 
L 4781 3578 
L 1530 3578 
L 1530 4384 
L 4909 4384 
L 4909 4819 
L 992 4819 
z
" transform="scale(0.015625)"/>
     </defs>
     <use xlink:href="#NotoSansCJKjp-Regular-ac80"/>
     <use xlink:href="#NotoSansCJKjp-Regular-d1a0" x="91.999985"/>
    </g>
    <!-- 재현·누수·위험 -->
    <g style="fill: #172c35" transform="translate(298.437525 349.992478) scale(0.18 -0.18)">
     <defs>
      <path id="NotoSansCJKjp-Regular-c7ac" d="M 3482 5171 
L 3482 -205 
L 3987 -205 
L 3987 2509 
L 4742 2509 
L 4742 -499 
L 5254 -499 
L 5254 5293 
L 4742 5293 
L 4742 2957 
L 3987 2957 
L 3987 5171 
L 3482 5171 
z
M 397 4608 
L 397 4173 
L 1517 4173 
L 1517 3725 
C 1517 2554 1088 1562 256 1101 
L 589 691 
C 1190 1050 1587 1677 1786 2470 
C 1990 1766 2381 1210 2957 896 
L 3270 1306 
C 2451 1728 2029 2669 2029 3725 
L 2029 4173 
L 3078 4173 
L 3078 4608 
L 397 4608 
z
" transform="scale(0.015625)"/>
      <path id="NotoSansCJKjp-Regular-d604" d="M 1965 3840 
C 1197 3840 659 3392 659 2733 
C 659 2074 1197 1626 1965 1626 
C 2739 1626 3277 2074 3277 2733 
C 3277 3392 2739 3840 1965 3840 
z
M 1965 3418 
C 2445 3418 2778 3142 2778 2733 
C 2778 2317 2445 2042 1965 2042 
C 1485 2042 1158 2317 1158 2733 
C 1158 3142 1485 3418 1965 3418 
z
M 3571 2534 
L 3571 2106 
L 4550 2106 
L 4550 870 
L 5082 870 
L 5082 5286 
L 4550 5286 
L 4550 3750 
L 3571 3750 
L 3571 3315 
L 4550 3315 
L 4550 2534 
L 3571 2534 
z
M 1709 5293 
L 1709 4582 
L 326 4582 
L 326 4154 
L 3571 4154 
L 3571 4582 
L 2234 4582 
L 2234 5293 
L 1709 5293 
z
M 1363 1254 
L 1363 -371 
L 5216 -371 
L 5216 64 
L 1894 64 
L 1894 1254 
L 1363 1254 
z
" transform="scale(0.015625)"/>
      <path id="NotoSansCJKjp-Regular-b204" d="M 992 4998 
L 992 2912 
L 4960 2912 
L 4960 3347 
L 1523 3347 
L 1523 4998 
L 992 4998 
z
M 320 2048 
L 320 1606 
L 2656 1606 
L 2656 -499 
L 3187 -499 
L 3187 1606 
L 5568 1606 
L 5568 2048 
L 320 2048 
z
" transform="scale(0.015625)"/>
      <path id="NotoSansCJKjp-Regular-c704" d="M 2208 5018 
C 1350 5018 736 4538 736 3827 
C 736 3123 1350 2637 2208 2637 
C 3072 2637 3686 3123 3686 3827 
C 3686 4538 3072 5018 2208 5018 
z
M 2208 4582 
C 2778 4582 3181 4275 3181 3827 
C 3181 3379 2778 3078 2208 3078 
C 1651 3078 1248 3379 1248 3827 
C 1248 4275 1651 4582 2208 4582 
z
M 4538 5286 
L 4538 -499 
L 5062 -499 
L 5062 5286 
L 4538 5286 
z
M 378 1702 
C 851 1702 1402 1709 1978 1734 
L 1978 -320 
L 2509 -320 
L 2509 1766 
C 3059 1805 3616 1862 4160 1965 
L 4122 2362 
C 2854 2170 1382 2150 307 2150 
L 378 1702 
z
" transform="scale(0.015625)"/>
      <path id="NotoSansCJKjp-Regular-d5d8" d="M 1325 1478 
L 1325 -422 
L 5082 -422 
L 5082 1478 
L 1325 1478 
z
M 4563 1050 
L 4563 13 
L 1850 13 
L 1850 1050 
L 4563 1050 
z
M 2003 3962 
C 1222 3962 666 3539 666 2931 
C 666 2310 1222 1901 2003 1901 
C 2784 1901 3334 2310 3334 2931 
C 3334 3539 2784 3962 2003 3962 
z
M 2003 3552 
C 2490 3552 2829 3302 2829 2931 
C 2829 2554 2490 2304 2003 2304 
C 1510 2304 1171 2554 1171 2931 
C 1171 3302 1510 3552 2003 3552 
z
M 3590 3533 
L 3590 3091 
L 4550 3091 
L 4550 1786 
L 5082 1786 
L 5082 5293 
L 4550 5293 
L 4550 3533 
L 3590 3533 
z
M 1741 5344 
L 1741 4691 
L 326 4691 
L 326 4256 
L 3674 4256 
L 3674 4691 
L 2266 4691 
L 2266 5344 
L 1741 5344 
z
" transform="scale(0.015625)"/>
     </defs>
     <use xlink:href="#NotoSansCJKjp-Regular-c7ac"/>
     <use xlink:href="#NotoSansCJKjp-Regular-d604" x="91.999985"/>
     <use xlink:href="#NotoSansCJKjp-Regular-b7" x="183.999969"/>
     <use xlink:href="#NotoSansCJKjp-Regular-b204" x="240.09996"/>
     <use xlink:href="#NotoSansCJKjp-Regular-c218" x="332.099945"/>
     <use xlink:href="#NotoSansCJKjp-Regular-b7" x="424.09993"/>
     <use xlink:href="#NotoSansCJKjp-Regular-c704" x="480.199921"/>
     <use xlink:href="#NotoSansCJKjp-Regular-d5d8" x="572.199905"/>
    </g>
   </g>
  </g>
  <g id="text_7">
   <!-- 만들고 계산하고 다시 검토하기 -->
   <g style="fill: #172c35" transform="translate(42.12 41.879375) scale(0.2 -0.2)">
    <defs>
     <path id="NotoSansCJKjp-Bold-b9cc" d="M 429 4877 
L 429 2010 
L 3258 2010 
L 3258 4877 
L 429 4877 
z
M 2419 4198 
L 2419 2682 
L 1267 2682 
L 1267 4198 
L 2419 4198 
z
M 4070 5357 
L 4070 1037 
L 4922 1037 
L 4922 2950 
L 5709 2950 
L 5709 3648 
L 4922 3648 
L 4922 5357 
L 4070 5357 
z
M 1101 1459 
L 1101 -467 
L 5133 -467 
L 5133 218 
L 1958 218 
L 1958 1459 
L 1101 1459 
z
" transform="scale(0.015625)"/>
     <path id="NotoSansCJKjp-Bold-b4e4" d="M 269 3059 
L 269 2394 
L 5626 2394 
L 5626 3059 
L 269 3059 
z
M 928 5248 
L 928 3379 
L 4992 3379 
L 4992 4051 
L 1773 4051 
L 1773 4576 
L 4941 4576 
L 4941 5248 
L 928 5248 
z
M 877 134 
L 877 -518 
L 5126 -518 
L 5126 134 
L 1722 134 
L 1722 486 
L 4966 486 
L 4966 2061 
L 870 2061 
L 870 1414 
L 4128 1414 
L 4128 1088 
L 877 1088 
L 877 134 
z
" transform="scale(0.015625)"/>
     <path id="NotoSansCJKjp-Bold-ace0" d="M 813 4858 
L 813 4179 
L 4256 4179 
C 4256 3488 4243 2662 4026 1542 
L 4877 1453 
C 5114 2714 5114 3552 5114 4294 
L 5114 4858 
L 813 4858 
z
M 2157 2874 
L 2157 838 
L 262 838 
L 262 147 
L 5626 147 
L 5626 838 
L 3014 838 
L 3014 2874 
L 2157 2874 
z
" transform="scale(0.015625)"/>
     <path id="NotoSansCJKjp-Bold-20" transform="scale(0.015625)"/>
     <path id="NotoSansCJKjp-Bold-acc4" d="M 4550 5363 
L 4550 -563 
L 5363 -563 
L 5363 5363 
L 4550 5363 
z
M 512 4666 
L 512 3981 
L 1971 3981 
C 1862 2816 1350 1965 173 1261 
L 653 666 
C 1766 1318 2355 2138 2624 3123 
L 3334 3123 
L 3334 2317 
L 2515 2317 
L 2515 1638 
L 3334 1638 
L 3334 -301 
L 4128 -301 
L 4128 5235 
L 3334 5235 
L 3334 3795 
L 2758 3795 
C 2790 4077 2810 4365 2810 4666 
L 512 4666 
z
" transform="scale(0.015625)"/>
     <path id="NotoSansCJKjp-Bold-c0b0" d="M 1587 4998 
L 1587 4358 
C 1587 3552 1171 2765 166 2438 
L 621 1779 
C 1306 2010 1773 2470 2035 3059 
C 2291 2522 2726 2099 3373 1888 
L 3808 2554 
C 2854 2867 2451 3610 2451 4352 
L 2451 4998 
L 1587 4998 
z
M 4070 5357 
L 4070 1024 
L 4922 1024 
L 4922 2944 
L 5709 2944 
L 5709 3642 
L 4922 3642 
L 4922 5357 
L 4070 5357 
z
M 1107 1440 
L 1107 -467 
L 5133 -467 
L 5133 218 
L 1965 218 
L 1965 1440 
L 1107 1440 
z
" transform="scale(0.015625)"/>
     <path id="NotoSansCJKjp-Bold-d558" d="M 1971 3469 
C 1107 3469 467 2886 467 2061 
C 467 1229 1107 646 1971 646 
C 2829 646 3469 1229 3469 2061 
C 3469 2886 2829 3469 1971 3469 
z
M 1971 2778 
C 2368 2778 2656 2515 2656 2061 
C 2656 1606 2368 1338 1971 1338 
C 1568 1338 1280 1606 1280 2061 
C 1280 2515 1568 2778 1971 2778 
z
M 4058 5357 
L 4058 -570 
L 4909 -570 
L 4909 2342 
L 5760 2342 
L 5760 3046 
L 4909 3046 
L 4909 5357 
L 4058 5357 
z
M 1536 5261 
L 1536 4486 
L 230 4486 
L 230 3808 
L 3686 3808 
L 3686 4486 
L 2394 4486 
L 2394 5261 
L 1536 5261 
z
" transform="scale(0.015625)"/>
     <path id="NotoSansCJKjp-Bold-b2e4" d="M 4045 5370 
L 4045 -576 
L 4902 -576 
L 4902 2470 
L 5760 2470 
L 5760 3174 
L 4902 3174 
L 4902 5370 
L 4045 5370 
z
M 486 4819 
L 486 845 
L 986 845 
C 2016 845 2829 877 3725 1037 
L 3642 1741 
C 2880 1606 2182 1562 1338 1549 
L 1338 4134 
L 3251 4134 
L 3251 4819 
L 486 4819 
z
" transform="scale(0.015625)"/>
     <path id="NotoSansCJKjp-Bold-c2dc" d="M 4326 5370 
L 4326 -576 
L 5178 -576 
L 5178 5370 
L 4326 5370 
z
M 1702 4902 
L 1702 4045 
C 1702 2893 1216 1747 186 1299 
L 691 595 
C 1402 928 1882 1562 2144 2349 
C 2406 1626 2867 1043 3546 736 
L 4038 1427 
C 3027 1856 2560 2944 2560 4045 
L 2560 4902 
L 1702 4902 
z
" transform="scale(0.015625)"/>
     <path id="NotoSansCJKjp-Bold-ac80" d="M 1312 1805 
L 1312 -506 
L 5222 -506 
L 5222 1805 
L 1312 1805 
z
M 4384 1139 
L 4384 166 
L 2150 166 
L 2150 1139 
L 4384 1139 
z
M 608 5024 
L 608 4346 
L 2394 4346 
C 2266 3558 1555 2918 288 2573 
L 614 1907 
C 2349 2387 3315 3456 3315 5024 
L 608 5024 
z
M 3347 3955 
L 3347 3264 
L 4365 3264 
L 4365 2048 
L 5222 2048 
L 5222 5363 
L 4365 5363 
L 4365 3955 
L 3347 3955 
z
" transform="scale(0.015625)"/>
     <path id="NotoSansCJKjp-Bold-d1a0" d="M 890 4960 
L 890 1754 
L 2515 1754 
L 2515 768 
L 262 768 
L 262 83 
L 5632 83 
L 5632 768 
L 3366 768 
L 3366 1754 
L 5056 1754 
L 5056 2426 
L 1754 2426 
L 1754 3040 
L 4877 3040 
L 4877 3699 
L 1754 3699 
L 1754 4275 
L 5011 4275 
L 5011 4960 
L 890 4960 
z
" transform="scale(0.015625)"/>
     <path id="NotoSansCJKjp-Bold-ae30" d="M 4346 5363 
L 4346 -563 
L 5197 -563 
L 5197 5363 
L 4346 5363 
z
M 595 4749 
L 595 4070 
L 2573 4070 
C 2445 2758 1786 1830 275 1107 
L 723 435 
C 2829 1453 3437 2931 3437 4749 
L 595 4749 
z
" transform="scale(0.015625)"/>
    </defs>
    <use xlink:href="#NotoSansCJKjp-Bold-b9cc"/>
    <use xlink:href="#NotoSansCJKjp-Bold-b4e4" x="91.999985"/>
    <use xlink:href="#NotoSansCJKjp-Bold-ace0" x="183.999969"/>
    <use xlink:href="#NotoSansCJKjp-Bold-20" x="275.999954"/>
    <use xlink:href="#NotoSansCJKjp-Bold-acc4" x="298.699951"/>
    <use xlink:href="#NotoSansCJKjp-Bold-c0b0" x="390.699936"/>
    <use xlink:href="#NotoSansCJKjp-Bold-d558" x="482.699921"/>
    <use xlink:href="#NotoSansCJKjp-Bold-ace0" x="574.699905"/>
    <use xlink:href="#NotoSansCJKjp-Bold-20" x="666.69989"/>
    <use xlink:href="#NotoSansCJKjp-Bold-b2e4" x="689.399887"/>
    <use xlink:href="#NotoSansCJKjp-Bold-c2dc" x="781.399872"/>
    <use xlink:href="#NotoSansCJKjp-Bold-20" x="873.399857"/>
    <use xlink:href="#NotoSansCJKjp-Bold-ac80" x="896.099854"/>
    <use xlink:href="#NotoSansCJKjp-Bold-d1a0" x="988.099838"/>
    <use xlink:href="#NotoSansCJKjp-Bold-d558" x="1080.099823"/>
    <use xlink:href="#NotoSansCJKjp-Bold-ae30" x="1172.099808"/>
   </g>
  </g>
  <g id="text_8">
   <!-- INVESTING ON MY OWN  /  02.1  /  2026-09-22 -->
   <g style="fill: #67767a" transform="translate(42.12 408.24) scale(0.09 -0.09)">
    <defs>
     <path id="NotoSansCJKjp-Regular-49" d="M 646 0 
L 1235 0 
L 1235 4691 
L 646 4691 
L 646 0 
z
" transform="scale(0.015625)"/>
     <path id="NotoSansCJKjp-Regular-4e" d="M 646 0 
L 1203 0 
L 1203 2464 
C 1203 2957 1158 3456 1133 3930 
L 1158 3930 
L 1664 2963 
L 3373 0 
L 3981 0 
L 3981 4691 
L 3418 4691 
L 3418 2253 
C 3418 1766 3462 1235 3501 768 
L 3469 768 
L 2963 1734 
L 1248 4691 
L 646 4691 
L 646 0 
z
" transform="scale(0.015625)"/>
     <path id="NotoSansCJKjp-Regular-56" d="M 1504 0 
L 2189 0 
L 3680 4691 
L 3078 4691 
L 2323 2150 
C 2163 1600 2048 1152 1869 602 
L 1843 602 
C 1670 1152 1549 1600 1389 2150 
L 627 4691 
L 6 4691 
L 1504 0 
z
" transform="scale(0.015625)"/>
     <path id="NotoSansCJKjp-Regular-45" d="M 646 0 
L 3418 0 
L 3418 506 
L 1235 506 
L 1235 2214 
L 3014 2214 
L 3014 2720 
L 1235 2720 
L 1235 4192 
L 3347 4192 
L 3347 4691 
L 646 4691 
L 646 0 
z
" transform="scale(0.015625)"/>
     <path id="NotoSansCJKjp-Regular-53" d="M 1946 -83 
C 2925 -83 3539 506 3539 1248 
C 3539 1946 3117 2266 2573 2502 
L 1907 2790 
C 1542 2944 1126 3117 1126 3578 
C 1126 3994 1472 4256 2003 4256 
C 2438 4256 2784 4090 3072 3821 
L 3379 4198 
C 3053 4538 2560 4774 2003 4774 
C 1152 4774 525 4256 525 3533 
C 525 2848 1043 2515 1478 2330 
L 2150 2035 
C 2598 1837 2938 1683 2938 1197 
C 2938 742 2573 435 1952 435 
C 1466 435 992 666 659 1018 
L 307 608 
C 710 186 1280 -83 1946 -83 
z
" transform="scale(0.015625)"/>
     <path id="NotoSansCJKjp-Regular-54" d="M 1619 0 
L 2214 0 
L 2214 4192 
L 3635 4192 
L 3635 4691 
L 198 4691 
L 198 4192 
L 1619 4192 
L 1619 0 
z
" transform="scale(0.015625)"/>
     <path id="NotoSansCJKjp-Regular-47" d="M 2490 -83 
C 3117 -83 3635 147 3936 461 
L 3936 2432 
L 2394 2432 
L 2394 1939 
L 3392 1939 
L 3392 710 
C 3206 538 2880 435 2547 435 
C 1542 435 979 1178 979 2362 
C 979 3533 1594 4256 2541 4256 
C 3008 4256 3315 4058 3552 3814 
L 3872 4198 
C 3603 4480 3174 4774 2522 4774 
C 1280 4774 371 3859 371 2342 
C 371 819 1254 -83 2490 -83 
z
" transform="scale(0.015625)"/>
     <path id="NotoSansCJKjp-Regular-4f" d="M 2374 -83 
C 3552 -83 4378 858 4378 2362 
C 4378 3866 3552 4774 2374 4774 
C 1197 4774 371 3866 371 2362 
C 371 858 1197 -83 2374 -83 
z
M 2374 435 
C 1530 435 979 1190 979 2362 
C 979 3533 1530 4256 2374 4256 
C 3219 4256 3770 3533 3770 2362 
C 3770 1190 3219 435 2374 435 
z
" transform="scale(0.015625)"/>
     <path id="NotoSansCJKjp-Regular-59" d="M 1402 0 
L 1990 0 
L 1990 1818 
L 3405 4691 
L 2790 4691 
L 2189 3366 
C 2042 3021 1882 2688 1715 2336 
L 1690 2336 
C 1523 2688 1382 3021 1229 3366 
L 621 4691 
L -6 4691 
L 1402 1818 
L 1402 0 
z
" transform="scale(0.015625)"/>
     <path id="NotoSansCJKjp-Regular-57" d="M 1158 0 
L 1862 0 
L 2560 2829 
C 2637 3200 2726 3539 2797 3898 
L 2822 3898 
C 2899 3539 2970 3200 3053 2829 
L 3763 0 
L 4480 0 
L 5446 4691 
L 4883 4691 
L 4378 2138 
C 4294 1632 4205 1126 4122 614 
L 4083 614 
C 3968 1126 3866 1638 3750 2138 
L 3098 4691 
L 2554 4691 
L 1907 2138 
C 1792 1632 1677 1126 1574 614 
L 1549 614 
C 1453 1126 1363 1632 1267 2138 
L 774 4691 
L 166 4691 
L 1158 0 
z
" transform="scale(0.015625)"/>
     <path id="NotoSansCJKjp-Regular-2f" d="M 70 -1146 
L 499 -1146 
L 2413 5082 
L 1990 5082 
L 70 -1146 
z
" transform="scale(0.015625)"/>
     <path id="NotoSansCJKjp-Regular-30" d="M 1779 -83 
C 2669 -83 3238 723 3238 2362 
C 3238 3987 2669 4774 1779 4774 
C 883 4774 320 3987 320 2362 
C 320 723 883 -83 1779 -83 
z
M 1779 390 
C 1248 390 883 986 883 2362 
C 883 3731 1248 4314 1779 4314 
C 2310 4314 2675 3731 2675 2362 
C 2675 986 2310 390 1779 390 
z
" transform="scale(0.015625)"/>
     <path id="NotoSansCJKjp-Regular-32" d="M 282 0 
L 3232 0 
L 3232 506 
L 1933 506 
C 1696 506 1408 480 1165 461 
C 2266 1504 3008 2458 3008 3398 
C 3008 4230 2477 4774 1638 4774 
C 1043 4774 634 4506 256 4090 
L 595 3757 
C 858 4070 1184 4301 1568 4301 
C 2150 4301 2432 3910 2432 3373 
C 2432 2566 1754 1632 282 346 
L 282 0 
z
" transform="scale(0.015625)"/>
     <path id="NotoSansCJKjp-Regular-2e" d="M 890 -83 
C 1120 -83 1312 96 1312 358 
C 1312 627 1120 806 890 806 
C 653 806 467 627 467 358 
C 467 96 653 -83 890 -83 
z
" transform="scale(0.015625)"/>
     <path id="NotoSansCJKjp-Regular-31" d="M 563 0 
L 3136 0 
L 3136 486 
L 2195 486 
L 2195 4691 
L 1747 4691 
C 1491 4544 1190 4435 774 4358 
L 774 3987 
L 1613 3987 
L 1613 486 
L 563 486 
L 563 0 
z
" transform="scale(0.015625)"/>
     <path id="NotoSansCJKjp-Regular-36" d="M 1926 -83 
C 2656 -83 3277 531 3277 1440 
C 3277 2426 2765 2912 1971 2912 
C 1606 2912 1197 2701 909 2349 
C 934 3802 1466 4294 2118 4294 
C 2400 4294 2682 4154 2861 3936 
L 3194 4294 
C 2931 4576 2579 4774 2093 4774 
C 1184 4774 358 4077 358 2240 
C 358 691 1030 -83 1926 -83 
z
M 922 1882 
C 1229 2317 1587 2477 1875 2477 
C 2445 2477 2720 2074 2720 1440 
C 2720 800 2374 378 1926 378 
C 1338 378 986 909 922 1882 
z
" transform="scale(0.015625)"/>
     <path id="NotoSansCJKjp-Regular-2d" d="M 294 1568 
L 1933 1568 
L 1933 2016 
L 294 2016 
L 294 1568 
z
" transform="scale(0.015625)"/>
     <path id="NotoSansCJKjp-Regular-39" d="M 1504 -83 
C 2381 -83 3206 646 3206 2547 
C 3206 4038 2528 4774 1626 4774 
C 896 4774 282 4166 282 3251 
C 282 2285 794 1779 1574 1779 
C 1965 1779 2368 2003 2656 2349 
C 2611 896 2086 403 1485 403 
C 1178 403 896 538 691 762 
L 371 397 
C 634 122 992 -83 1504 -83 
z
M 2650 2842 
C 2336 2394 1984 2214 1670 2214 
C 1114 2214 832 2624 832 3251 
C 832 3898 1178 4320 1632 4320 
C 2227 4320 2586 3808 2650 2842 
z
" transform="scale(0.015625)"/>
    </defs>
    <use xlink:href="#NotoSansCJKjp-Regular-49"/>
    <use xlink:href="#NotoSansCJKjp-Regular-4e" x="29.299988"/>
    <use xlink:href="#NotoSansCJKjp-Regular-56" x="101.599976"/>
    <use xlink:href="#NotoSansCJKjp-Regular-45" x="159.09996"/>
    <use xlink:href="#NotoSansCJKjp-Regular-53" x="217.999954"/>
    <use xlink:href="#NotoSansCJKjp-Regular-54" x="277.599945"/>
    <use xlink:href="#NotoSansCJKjp-Regular-49" x="337.499939"/>
    <use xlink:href="#NotoSansCJKjp-Regular-4e" x="366.799927"/>
    <use xlink:href="#NotoSansCJKjp-Regular-47" x="439.099915"/>
    <use xlink:href="#NotoSansCJKjp-Regular-20" x="507.999908"/>
    <use xlink:href="#NotoSansCJKjp-Regular-4f" x="530.399902"/>
    <use xlink:href="#NotoSansCJKjp-Regular-4e" x="604.599884"/>
    <use xlink:href="#NotoSansCJKjp-Regular-20" x="676.899872"/>
    <use xlink:href="#NotoSansCJKjp-Regular-4d" x="699.299866"/>
    <use xlink:href="#NotoSansCJKjp-Regular-59" x="780.499847"/>
    <use xlink:href="#NotoSansCJKjp-Regular-20" x="833.599838"/>
    <use xlink:href="#NotoSansCJKjp-Regular-4f" x="855.999832"/>
    <use xlink:href="#NotoSansCJKjp-Regular-57" x="930.199814"/>
    <use xlink:href="#NotoSansCJKjp-Regular-4e" x="1017.999802"/>
    <use xlink:href="#NotoSansCJKjp-Regular-20" x="1090.299789"/>
    <use xlink:href="#NotoSansCJKjp-Regular-20" x="1112.699783"/>
    <use xlink:href="#NotoSansCJKjp-Regular-2f" x="1135.099777"/>
    <use xlink:href="#NotoSansCJKjp-Regular-20" x="1174.299774"/>
    <use xlink:href="#NotoSansCJKjp-Regular-20" x="1196.699768"/>
    <use xlink:href="#NotoSansCJKjp-Regular-30" x="1219.099762"/>
    <use xlink:href="#NotoSansCJKjp-Regular-32" x="1274.599747"/>
    <use xlink:href="#NotoSansCJKjp-Regular-2e" x="1330.099731"/>
    <use xlink:href="#NotoSansCJKjp-Regular-31" x="1357.899719"/>
    <use xlink:href="#NotoSansCJKjp-Regular-20" x="1413.399704"/>
    <use xlink:href="#NotoSansCJKjp-Regular-20" x="1435.799698"/>
    <use xlink:href="#NotoSansCJKjp-Regular-2f" x="1458.199692"/>
    <use xlink:href="#NotoSansCJKjp-Regular-20" x="1497.399689"/>
    <use xlink:href="#NotoSansCJKjp-Regular-20" x="1519.799683"/>
    <use xlink:href="#NotoSansCJKjp-Regular-32" x="1542.199677"/>
    <use xlink:href="#NotoSansCJKjp-Regular-30" x="1597.699661"/>
    <use xlink:href="#NotoSansCJKjp-Regular-32" x="1653.199646"/>
    <use xlink:href="#NotoSansCJKjp-Regular-36" x="1708.699631"/>
    <use xlink:href="#NotoSansCJKjp-Regular-2d" x="1764.199615"/>
    <use xlink:href="#NotoSansCJKjp-Regular-30" x="1798.899612"/>
    <use xlink:href="#NotoSansCJKjp-Regular-39" x="1854.399597"/>
    <use xlink:href="#NotoSansCJKjp-Regular-2d" x="1909.899582"/>
    <use xlink:href="#NotoSansCJKjp-Regular-32" x="1944.599579"/>
    <use xlink:href="#NotoSansCJKjp-Regular-32" x="2000.099564"/>
   </g>
  </g>
 </g>
 <defs>
  <clipPath id="pbc81b70f9b">
   <rect x="38.88" y="86.4" width="570.24" height="293.76"/>
  </clipPath>
 </defs>
</svg>
