<?xml version="1.0" encoding="utf-8" standalone="no"?>
<!DOCTYPE svg PUBLIC "-//W3C//DTD SVG 1.1//EN"
  "http://www.w3.org/Graphics/SVG/1.1/DTD/svg11.dtd">
<svg xmlns:xlink="http://www.w3.org/1999/xlink" width="648pt" height="432pt" viewBox="0 0 648 432" xmlns="http://www.w3.org/2000/svg" version="1.1">
 <metadata>
  <rdf:RDF xmlns:dc="http://purl.org/dc/elements/1.1/" xmlns:cc="http://creativecommons.org/ns#" xmlns:rdf="http://www.w3.org/1999/02/22-rdf-syntax-ns#">
   <cc:Work>
    <dc:type rdf:resource="http://purl.org/dc/dcmitype/StillImage"/>
    <dc:format>image/svg+xml</dc:format>
    <dc:creator>
     <cc:Agent>
      <dc:title>Matplotlib</dc:title>
     </cc:Agent>
    </dc:creator>
   </cc:Work>
  </rdf:RDF>
 </metadata>
 <defs>
  <style type="text/css">*{stroke-linejoin: round; stroke-linecap: butt}</style>
 </defs>
 <g id="figure_1">
  <g id="patch_1">
   <path d="M 0 432 
L 648 432 
L 648 0 
L 0 0 
z
" style="fill: #faf8f3"/>
  </g>
  <g id="axes_1">
   <g id="patch_2">
    <path d="M 200.88 345.6 
L 589.68 345.6 
L 589.68 108 
L 200.88 108 
z
" style="fill: #faf8f3"/>
   </g>
   <g id="matplotlib.axis_1">
    <g id="xtick_1">
     <g id="line2d_1">
      <path d="M 226.001563 345.6 
L 226.001563 108 
" clip-path="url(#p0f3806d307)" style="fill: none; stroke: #b0b0b0; stroke-opacity: 0.18; stroke-width: 0.8; stroke-linecap: square"/>
     </g>
     <g id="line2d_2"/>
     <g id="text_1">
      <!-- -10 -->
      <g transform="translate(217.987891 362.355312) scale(0.11 -0.11)">
       <defs>
        <path id="NotoSansCJKjp-Regular-2d" d="M 294 1568 
L 1933 1568 
L 1933 2016 
L 294 2016 
L 294 1568 
z
" transform="scale(0.015625)"/>
        <path id="NotoSansCJKjp-Regular-31" d="M 563 0 
L 3136 0 
L 3136 486 
L 2195 486 
L 2195 4691 
L 1747 4691 
C 1491 4544 1190 4435 774 4358 
L 774 3987 
L 1613 3987 
L 1613 486 
L 563 486 
L 563 0 
z
" transform="scale(0.015625)"/>
        <path id="NotoSansCJKjp-Regular-30" d="M 1779 -83 
C 2669 -83 3238 723 3238 2362 
C 3238 3987 2669 4774 1779 4774 
C 883 4774 320 3987 320 2362 
C 320 723 883 -83 1779 -83 
z
M 1779 390 
C 1248 390 883 986 883 2362 
C 883 3731 1248 4314 1779 4314 
C 2310 4314 2675 3731 2675 2362 
C 2675 986 2310 390 1779 390 
z
" transform="scale(0.015625)"/>
       </defs>
       <use xlink:href="#NotoSansCJKjp-Regular-2d"/>
       <use xlink:href="#NotoSansCJKjp-Regular-31" x="34.699997"/>
       <use xlink:href="#NotoSansCJKjp-Regular-30" x="90.199982"/>
      </g>
     </g>
    </g>
    <g id="xtick_2">
     <g id="line2d_3">
      <path d="M 306.251891 345.6 
L 306.251891 108 
" clip-path="url(#p0f3806d307)" style="fill: none; stroke: #b0b0b0; stroke-opacity: 0.18; stroke-width: 0.8; stroke-linecap: square"/>
     </g>
     <g id="line2d_4"/>
     <g id="text_2">
      <!-- -5 -->
      <g transform="translate(301.290719 362.355312) scale(0.11 -0.11)">
       <defs>
        <path id="NotoSansCJKjp-Regular-35" d="M 1677 -83 
C 2464 -83 3213 499 3213 1523 
C 3213 2560 2573 3021 1798 3021 
C 1517 3021 1306 2950 1094 2835 
L 1216 4192 
L 2982 4192 
L 2982 4691 
L 704 4691 
L 550 2502 
L 864 2304 
C 1133 2483 1331 2579 1645 2579 
C 2234 2579 2618 2182 2618 1510 
C 2618 826 2176 403 1619 403 
C 1075 403 730 653 467 922 
L 173 538 
C 493 224 941 -83 1677 -83 
z
" transform="scale(0.015625)"/>
       </defs>
       <use xlink:href="#NotoSansCJKjp-Regular-2d"/>
       <use xlink:href="#NotoSansCJKjp-Regular-35" x="34.699997"/>
      </g>
     </g>
    </g>
    <g id="xtick_3">
     <g id="line2d_5">
      <path d="M 386.502219 345.6 
L 386.502219 108 
" clip-path="url(#p0f3806d307)" style="fill: none; stroke: #b0b0b0; stroke-opacity: 0.18; stroke-width: 0.8; stroke-linecap: square"/>
     </g>
     <g id="line2d_6"/>
     <g id="text_3">
      <!-- 0 -->
      <g transform="translate(383.449719 362.355312) scale(0.11 -0.11)">
       <use xlink:href="#NotoSansCJKjp-Regular-30"/>
      </g>
     </g>
    </g>
    <g id="xtick_4">
     <g id="line2d_7">
      <path d="M 466.752547 345.6 
L 466.752547 108 
" clip-path="url(#p0f3806d307)" style="fill: none; stroke: #b0b0b0; stroke-opacity: 0.18; stroke-width: 0.8; stroke-linecap: square"/>
     </g>
     <g id="line2d_8"/>
     <g id="text_4">
      <!-- 5 -->
      <g transform="translate(463.700047 362.355312) scale(0.11 -0.11)">
       <use xlink:href="#NotoSansCJKjp-Regular-35"/>
      </g>
     </g>
    </g>
    <g id="xtick_5">
     <g id="line2d_9">
      <path d="M 547.002875 345.6 
L 547.002875 108 
" clip-path="url(#p0f3806d307)" style="fill: none; stroke: #b0b0b0; stroke-opacity: 0.18; stroke-width: 0.8; stroke-linecap: square"/>
     </g>
     <g id="line2d_10"/>
     <g id="text_5">
      <!-- 10 -->
      <g transform="translate(540.897875 362.355312) scale(0.11 -0.11)">
       <use xlink:href="#NotoSansCJKjp-Regular-31"/>
       <use xlink:href="#NotoSansCJKjp-Regular-30" x="55.499985"/>
      </g>
     </g>
    </g>
    <g id="text_6">
     <!-- CAGR % -->
     <g style="fill: #4f6466" transform="translate(372.99 384.42625) scale(0.12 -0.12)">
      <defs>
       <path id="NotoSansCJKjp-Regular-43" d="M 2413 -83 
C 3021 -83 3482 160 3853 589 
L 3526 966 
C 3226 634 2886 435 2438 435 
C 1542 435 979 1178 979 2362 
C 979 3533 1574 4256 2458 4256 
C 2861 4256 3168 4077 3418 3814 
L 3738 4198 
C 3469 4499 3021 4774 2451 4774 
C 1261 4774 371 3859 371 2342 
C 371 819 1242 -83 2413 -83 
z
" transform="scale(0.015625)"/>
       <path id="NotoSansCJKjp-Regular-41" d="M 26 0 
L 621 0 
L 1075 1434 
L 2790 1434 
L 3238 0 
L 3866 0 
L 2272 4691 
L 1613 4691 
L 26 0 
z
M 1222 1901 
L 1453 2624 
C 1619 3155 1773 3661 1920 4211 
L 1946 4211 
C 2099 3667 2246 3155 2419 2624 
L 2643 1901 
L 1222 1901 
z
" transform="scale(0.015625)"/>
       <path id="NotoSansCJKjp-Regular-47" d="M 2490 -83 
C 3117 -83 3635 147 3936 461 
L 3936 2432 
L 2394 2432 
L 2394 1939 
L 3392 1939 
L 3392 710 
C 3206 538 2880 435 2547 435 
C 1542 435 979 1178 979 2362 
C 979 3533 1594 4256 2541 4256 
C 3008 4256 3315 4058 3552 3814 
L 3872 4198 
C 3603 4480 3174 4774 2522 4774 
C 1280 4774 371 3859 371 2342 
C 371 819 1254 -83 2490 -83 
z
" transform="scale(0.015625)"/>
       <path id="NotoSansCJKjp-Regular-52" d="M 1235 2464 
L 1235 4211 
L 2022 4211 
C 2758 4211 3162 3994 3162 3379 
C 3162 2765 2758 2464 2022 2464 
L 1235 2464 
z
M 3219 0 
L 3885 0 
L 2694 2054 
C 3328 2208 3750 2643 3750 3379 
C 3750 4352 3066 4691 2112 4691 
L 646 4691 
L 646 0 
L 1235 0 
L 1235 1990 
L 2080 1990 
L 3219 0 
z
" transform="scale(0.015625)"/>
       <path id="NotoSansCJKjp-Regular-20" transform="scale(0.015625)"/>
       <path id="NotoSansCJKjp-Regular-25" d="M 1312 1818 
C 1958 1818 2381 2362 2381 3309 
C 2381 4243 1958 4774 1312 4774 
C 672 4774 250 4243 250 3309 
C 250 2362 672 1818 1312 1818 
z
M 1312 2176 
C 941 2176 691 2560 691 3309 
C 691 4058 941 4416 1312 4416 
C 1683 4416 1933 4058 1933 3309 
C 1933 2560 1683 2176 1312 2176 
z
M 1446 -83 
L 1843 -83 
L 4435 4774 
L 4038 4774 
L 1446 -83 
z
M 4582 -83 
C 5222 -83 5645 454 5645 1402 
C 5645 2342 5222 2874 4582 2874 
C 3942 2874 3520 2342 3520 1402 
C 3520 454 3942 -83 4582 -83 
z
M 4582 275 
C 4211 275 3955 653 3955 1402 
C 3955 2150 4211 2515 4582 2515 
C 4947 2515 5210 2150 5210 1402 
C 5210 653 4947 275 4582 275 
z
" transform="scale(0.015625)"/>
      </defs>
      <use xlink:href="#NotoSansCJKjp-Regular-43"/>
      <use xlink:href="#NotoSansCJKjp-Regular-41" x="63.799988"/>
      <use xlink:href="#NotoSansCJKjp-Regular-47" x="124.599976"/>
      <use xlink:href="#NotoSansCJKjp-Regular-52" x="193.499969"/>
      <use xlink:href="#NotoSansCJKjp-Regular-20" x="256.999954"/>
      <use xlink:href="#NotoSansCJKjp-Regular-25" x="279.399948"/>
     </g>
    </g>
   </g>
   <g id="matplotlib.axis_2">
    <g id="ytick_1">
     <g id="line2d_11"/>
     <g id="text_7">
      <!-- 30-day -->
      <g style="fill: #172c35" transform="translate(158.109688 149.123257) scale(0.11 -0.11)">
       <defs>
        <path id="NotoSansCJKjp-Regular-33" d="M 1683 -83 
C 2522 -83 3194 416 3194 1254 
C 3194 1901 2752 2310 2202 2445 
L 2202 2477 
C 2701 2650 3034 3034 3034 3603 
C 3034 4346 2458 4774 1664 4774 
C 1126 4774 710 4538 358 4218 
L 672 3846 
C 941 4115 1267 4301 1645 4301 
C 2138 4301 2438 4006 2438 3558 
C 2438 3053 2112 2662 1139 2662 
L 1139 2214 
C 2227 2214 2598 1843 2598 1274 
C 2598 736 2208 403 1645 403 
C 1114 403 762 659 486 941 
L 186 563 
C 493 224 954 -83 1683 -83 
z
" transform="scale(0.015625)"/>
        <path id="NotoSansCJKjp-Regular-64" d="M 1773 -83 
C 2189 -83 2560 141 2829 410 
L 2848 410 
L 2899 0 
L 3379 0 
L 3379 5094 
L 2790 5094 
L 2790 3757 
L 2822 3162 
C 2515 3411 2253 3565 1843 3565 
C 1050 3565 339 2861 339 1734 
C 339 576 902 -83 1773 -83 
z
M 1901 410 
C 1293 410 941 902 941 1741 
C 941 2534 1389 3072 1946 3072 
C 2234 3072 2502 2970 2790 2707 
L 2790 883 
C 2502 563 2221 410 1901 410 
z
" transform="scale(0.015625)"/>
        <path id="NotoSansCJKjp-Regular-61" d="M 1389 -83 
C 1818 -83 2208 141 2541 416 
L 2560 416 
L 2611 0 
L 3091 0 
L 3091 2138 
C 3091 3002 2739 3565 1888 3565 
C 1325 3565 838 3315 525 3110 
L 749 2707 
C 1024 2893 1389 3078 1792 3078 
C 2362 3078 2509 2650 2509 2202 
C 1030 2035 378 1658 378 902 
C 378 275 806 -83 1389 -83 
z
M 1555 390 
C 1210 390 941 544 941 941 
C 941 1389 1338 1677 2509 1811 
L 2509 845 
C 2170 544 1888 390 1555 390 
z
" transform="scale(0.015625)"/>
        <path id="NotoSansCJKjp-Regular-79" d="M 646 -1498 
C 1338 -1498 1702 -973 1946 -294 
L 3251 3475 
L 2682 3475 
L 2054 1549 
C 1965 1235 1862 883 1773 563 
L 1741 563 
C 1619 890 1504 1242 1395 1549 
L 691 3475 
L 83 3475 
L 1478 -6 
L 1402 -269 
C 1254 -698 1011 -1018 621 -1018 
C 525 -1018 422 -986 352 -960 
L 237 -1427 
C 346 -1472 486 -1498 646 -1498 
z
" transform="scale(0.015625)"/>
       </defs>
       <use xlink:href="#NotoSansCJKjp-Regular-33"/>
       <use xlink:href="#NotoSansCJKjp-Regular-30" x="55.499985"/>
       <use xlink:href="#NotoSansCJKjp-Regular-2d" x="110.999969"/>
       <use xlink:href="#NotoSansCJKjp-Regular-64" x="145.699966"/>
       <use xlink:href="#NotoSansCJKjp-Regular-61" x="207.699951"/>
       <use xlink:href="#NotoSansCJKjp-Regular-79" x="263.999939"/>
      </g>
     </g>
    </g>
    <g id="ytick_2">
     <g id="line2d_12"/>
     <g id="text_8">
      <!-- 180-day -->
      <g style="fill: #172c35" transform="translate(152.004687 231.177656) scale(0.11 -0.11)">
       <defs>
        <path id="NotoSansCJKjp-Regular-38" d="M 1792 -83 
C 2669 -83 3258 448 3258 1126 
C 3258 1773 2880 2125 2470 2362 
L 2470 2394 
C 2746 2611 3091 3034 3091 3526 
C 3091 4250 2605 4762 1805 4762 
C 1075 4762 518 4282 518 3571 
C 518 3078 813 2726 1152 2490 
L 1152 2464 
C 723 2234 294 1792 294 1165 
C 294 442 922 -83 1792 -83 
z
M 2112 2547 
C 1555 2765 1050 3014 1050 3571 
C 1050 4026 1363 4326 1798 4326 
C 2298 4326 2592 3962 2592 3494 
C 2592 3149 2426 2829 2112 2547 
z
M 1798 352 
C 1235 352 813 717 813 1216 
C 813 1664 1082 2035 1459 2278 
C 2125 2010 2701 1779 2701 1146 
C 2701 678 2342 352 1798 352 
z
" transform="scale(0.015625)"/>
       </defs>
       <use xlink:href="#NotoSansCJKjp-Regular-31"/>
       <use xlink:href="#NotoSansCJKjp-Regular-38" x="55.499985"/>
       <use xlink:href="#NotoSansCJKjp-Regular-30" x="110.999969"/>
       <use xlink:href="#NotoSansCJKjp-Regular-2d" x="166.499954"/>
       <use xlink:href="#NotoSansCJKjp-Regular-64" x="201.199951"/>
       <use xlink:href="#NotoSansCJKjp-Regular-61" x="263.199936"/>
       <use xlink:href="#NotoSansCJKjp-Regular-79" x="319.499924"/>
      </g>
     </g>
    </g>
    <g id="ytick_3">
     <g id="line2d_13"/>
     <g id="text_9">
      <!-- Mixed -->
      <g style="fill: #172c35" transform="translate(162.530312 313.232055) scale(0.11 -0.11)">
       <defs>
        <path id="NotoSansCJKjp-Regular-4d" d="M 646 0 
L 1178 0 
L 1178 2598 
C 1178 3002 1139 3571 1101 3981 
L 1126 3981 
L 1504 2912 
L 2394 474 
L 2790 474 
L 3674 2912 
L 4051 3981 
L 4077 3981 
C 4045 3571 4000 3002 4000 2598 
L 4000 0 
L 4550 0 
L 4550 4691 
L 3840 4691 
L 2944 2182 
C 2835 1862 2739 1530 2618 1203 
L 2592 1203 
C 2477 1530 2374 1862 2253 2182 
L 1357 4691 
L 646 4691 
L 646 0 
z
" transform="scale(0.015625)"/>
        <path id="NotoSansCJKjp-Regular-69" d="M 589 0 
L 1178 0 
L 1178 3475 
L 589 3475 
L 589 0 
z
M 883 4192 
C 1114 4192 1274 4346 1274 4582 
C 1274 4806 1114 4960 883 4960 
C 653 4960 499 4806 499 4582 
C 499 4346 653 4192 883 4192 
z
" transform="scale(0.015625)"/>
        <path id="NotoSansCJKjp-Regular-78" d="M 96 0 
L 710 0 
L 1178 813 
C 1299 1024 1408 1235 1530 1434 
L 1562 1434 
C 1696 1235 1824 1024 1939 813 
L 2451 0 
L 3091 0 
L 1946 1754 
L 3002 3475 
L 2394 3475 
L 1965 2714 
C 1856 2515 1760 2330 1658 2131 
L 1626 2131 
C 1510 2330 1389 2515 1286 2714 
L 819 3475 
L 186 3475 
L 1242 1811 
L 96 0 
z
" transform="scale(0.015625)"/>
        <path id="NotoSansCJKjp-Regular-65" d="M 1997 -83 
C 2464 -83 2835 70 3136 269 
L 2931 659 
C 2669 486 2400 384 2061 384 
C 1402 384 947 858 909 1600 
L 3251 1600 
C 3264 1690 3277 1805 3277 1933 
C 3277 2925 2778 3565 1888 3565 
C 1094 3565 333 2867 333 1734 
C 333 589 1069 -83 1997 -83 
z
M 902 2016 
C 973 2707 1408 3098 1901 3098 
C 2445 3098 2765 2720 2765 2016 
L 902 2016 
z
" transform="scale(0.015625)"/>
       </defs>
       <use xlink:href="#NotoSansCJKjp-Regular-4d"/>
       <use xlink:href="#NotoSansCJKjp-Regular-69" x="81.199982"/>
       <use xlink:href="#NotoSansCJKjp-Regular-78" x="108.699966"/>
       <use xlink:href="#NotoSansCJKjp-Regular-65" x="158.499954"/>
       <use xlink:href="#NotoSansCJKjp-Regular-64" x="213.899948"/>
      </g>
     </g>
    </g>
   </g>
   <g id="patch_3">
    <path d="M 386.502219 118.8 
L 261.472208 118.8 
L 261.472208 142.792706 
L 386.502219 142.792706 
z
" clip-path="url(#p0f3806d307)" style="fill: #127b79"/>
   </g>
   <g id="patch_4">
    <path d="M 386.502219 200.854399 
L 327.758979 200.854399 
L 327.758979 224.847105 
L 386.502219 224.847105 
z
" clip-path="url(#p0f3806d307)" style="fill: #127b79"/>
   </g>
   <g id="patch_5">
    <path d="M 386.502219 282.908798 
L 296.782352 282.908798 
L 296.782352 306.901504 
L 386.502219 306.901504 
z
" clip-path="url(#p0f3806d307)" style="fill: #127b79"/>
   </g>
   <g id="patch_6">
    <path d="M 386.502219 146.698496 
L 483.123614 146.698496 
L 483.123614 170.691202 
L 386.502219 170.691202 
z
" clip-path="url(#p0f3806d307)" style="fill: #a47b36"/>
   </g>
   <g id="patch_7">
    <path d="M 386.502219 228.752895 
L 513.93974 228.752895 
L 513.93974 252.745601 
L 386.502219 252.745601 
z
" clip-path="url(#p0f3806d307)" style="fill: #a47b36"/>
   </g>
   <g id="patch_8">
    <path d="M 386.502219 310.807294 
L 508.001216 310.807294 
L 508.001216 334.8 
L 386.502219 334.8 
z
" clip-path="url(#p0f3806d307)" style="fill: #a47b36"/>
   </g>
   <g id="line2d_14">
    <path d="M 386.502219 345.6 
L 386.502219 108 
" clip-path="url(#p0f3806d307)" style="fill: none; stroke: #80938f; stroke-width: 0.8; stroke-linecap: square"/>
   </g>
   <g id="text_10">
    <!-- -7.79 -->
    <g style="fill: #172c35" transform="translate(230.933707 134.197603) scale(0.12 -0.12)">
     <defs>
      <path id="NotoSansCJKjp-Regular-37" d="M 1267 0 
L 1875 0 
C 1952 1837 2150 2931 3251 4339 
L 3251 4691 
L 314 4691 
L 314 4192 
L 2592 4192 
C 1670 2912 1350 1779 1267 0 
z
" transform="scale(0.015625)"/>
      <path id="NotoSansCJKjp-Regular-2e" d="M 890 -83 
C 1120 -83 1312 96 1312 358 
C 1312 627 1120 806 890 806 
C 653 806 467 627 467 358 
C 467 96 653 -83 890 -83 
z
" transform="scale(0.015625)"/>
      <path id="NotoSansCJKjp-Regular-39" d="M 1504 -83 
C 2381 -83 3206 646 3206 2547 
C 3206 4038 2528 4774 1626 4774 
C 896 4774 282 4166 282 3251 
C 282 2285 794 1779 1574 1779 
C 1965 1779 2368 2003 2656 2349 
C 2611 896 2086 403 1485 403 
C 1178 403 896 538 691 762 
L 371 397 
C 634 122 992 -83 1504 -83 
z
M 2650 2842 
C 2336 2394 1984 2214 1670 2214 
C 1114 2214 832 2624 832 3251 
C 832 3898 1178 4320 1632 4320 
C 2227 4320 2586 3808 2650 2842 
z
" transform="scale(0.015625)"/>
     </defs>
     <use xlink:href="#NotoSansCJKjp-Regular-2d"/>
     <use xlink:href="#NotoSansCJKjp-Regular-37" x="34.699997"/>
     <use xlink:href="#NotoSansCJKjp-Regular-2e" x="90.199982"/>
     <use xlink:href="#NotoSansCJKjp-Regular-37" x="117.999969"/>
     <use xlink:href="#NotoSansCJKjp-Regular-39" x="173.499954"/>
    </g>
   </g>
   <g id="text_11">
    <!-- -3.66 -->
    <g style="fill: #172c35" transform="translate(297.220478 216.252002) scale(0.12 -0.12)">
     <defs>
      <path id="NotoSansCJKjp-Regular-36" d="M 1926 -83 
C 2656 -83 3277 531 3277 1440 
C 3277 2426 2765 2912 1971 2912 
C 1606 2912 1197 2701 909 2349 
C 934 3802 1466 4294 2118 4294 
C 2400 4294 2682 4154 2861 3936 
L 3194 4294 
C 2931 4576 2579 4774 2093 4774 
C 1184 4774 358 4077 358 2240 
C 358 691 1030 -83 1926 -83 
z
M 922 1882 
C 1229 2317 1587 2477 1875 2477 
C 2445 2477 2720 2074 2720 1440 
C 2720 800 2374 378 1926 378 
C 1338 378 986 909 922 1882 
z
" transform="scale(0.015625)"/>
     </defs>
     <use xlink:href="#NotoSansCJKjp-Regular-2d"/>
     <use xlink:href="#NotoSansCJKjp-Regular-33" x="34.699997"/>
     <use xlink:href="#NotoSansCJKjp-Regular-2e" x="90.199982"/>
     <use xlink:href="#NotoSansCJKjp-Regular-36" x="117.999969"/>
     <use xlink:href="#NotoSansCJKjp-Regular-36" x="173.499954"/>
    </g>
   </g>
   <g id="text_12">
    <!-- -5.59 -->
    <g style="fill: #172c35" transform="translate(266.243852 298.306401) scale(0.12 -0.12)">
     <use xlink:href="#NotoSansCJKjp-Regular-2d"/>
     <use xlink:href="#NotoSansCJKjp-Regular-35" x="34.699997"/>
     <use xlink:href="#NotoSansCJKjp-Regular-2e" x="90.199982"/>
     <use xlink:href="#NotoSansCJKjp-Regular-35" x="117.999969"/>
     <use xlink:href="#NotoSansCJKjp-Regular-39" x="173.499954"/>
    </g>
   </g>
   <g id="text_13">
    <!-- 6.02 -->
    <g style="fill: #172c35" transform="translate(486.182115 162.096099) scale(0.12 -0.12)">
     <defs>
      <path id="NotoSansCJKjp-Regular-32" d="M 282 0 
L 3232 0 
L 3232 506 
L 1933 506 
C 1696 506 1408 480 1165 461 
C 2266 1504 3008 2458 3008 3398 
C 3008 4230 2477 4774 1638 4774 
C 1043 4774 634 4506 256 4090 
L 595 3757 
C 858 4070 1184 4301 1568 4301 
C 2150 4301 2432 3910 2432 3373 
C 2432 2566 1754 1632 282 346 
L 282 0 
z
" transform="scale(0.015625)"/>
     </defs>
     <use xlink:href="#NotoSansCJKjp-Regular-36"/>
     <use xlink:href="#NotoSansCJKjp-Regular-2e" x="55.499985"/>
     <use xlink:href="#NotoSansCJKjp-Regular-30" x="83.299973"/>
     <use xlink:href="#NotoSansCJKjp-Regular-32" x="138.799957"/>
    </g>
   </g>
   <g id="text_14">
    <!-- 7.94 -->
    <g style="fill: #172c35" transform="translate(516.998241 244.150498) scale(0.12 -0.12)">
     <defs>
      <path id="NotoSansCJKjp-Regular-34" d="M 2176 0 
L 2726 0 
L 2726 1293 
L 3354 1293 
L 3354 1760 
L 2726 1760 
L 2726 4691 
L 2080 4691 
L 128 1677 
L 128 1293 
L 2176 1293 
L 2176 0 
z
M 2176 1760 
L 736 1760 
L 1805 3360 
C 1939 3590 2067 3827 2182 4051 
L 2208 4051 
C 2195 3814 2176 3430 2176 3200 
L 2176 1760 
z
" transform="scale(0.015625)"/>
     </defs>
     <use xlink:href="#NotoSansCJKjp-Regular-37"/>
     <use xlink:href="#NotoSansCJKjp-Regular-2e" x="55.499985"/>
     <use xlink:href="#NotoSansCJKjp-Regular-39" x="83.299973"/>
     <use xlink:href="#NotoSansCJKjp-Regular-34" x="138.799957"/>
    </g>
   </g>
   <g id="text_15">
    <!-- 7.57 -->
    <g style="fill: #172c35" transform="translate(511.059716 326.204897) scale(0.12 -0.12)">
     <use xlink:href="#NotoSansCJKjp-Regular-37"/>
     <use xlink:href="#NotoSansCJKjp-Regular-2e" x="55.499985"/>
     <use xlink:href="#NotoSansCJKjp-Regular-35" x="83.299973"/>
     <use xlink:href="#NotoSansCJKjp-Regular-37" x="138.799957"/>
    </g>
   </g>
   <g id="legend_1">
    <g id="patch_9">
     <path d="M 199.116 88.452312 
L 221.116 88.452312 
L 221.116 80.752312 
L 199.116 80.752312 
z
" style="fill: #127b79; stroke: #127b79; stroke-linejoin: miter"/>
    </g>
    <g id="text_16">
     <!-- Sequential train -->
     <g transform="translate(229.916 88.452312) scale(0.11 -0.11)">
      <defs>
       <path id="NotoSansCJKjp-Regular-53" d="M 1946 -83 
C 2925 -83 3539 506 3539 1248 
C 3539 1946 3117 2266 2573 2502 
L 1907 2790 
C 1542 2944 1126 3117 1126 3578 
C 1126 3994 1472 4256 2003 4256 
C 2438 4256 2784 4090 3072 3821 
L 3379 4198 
C 3053 4538 2560 4774 2003 4774 
C 1152 4774 525 4256 525 3533 
C 525 2848 1043 2515 1478 2330 
L 2150 2035 
C 2598 1837 2938 1683 2938 1197 
C 2938 742 2573 435 1952 435 
C 1466 435 992 666 659 1018 
L 307 608 
C 710 186 1280 -83 1946 -83 
z
" transform="scale(0.015625)"/>
       <path id="NotoSansCJKjp-Regular-71" d="M 2790 -1466 
L 3379 -1466 
L 3379 3475 
L 2912 3475 
L 2854 3149 
L 2842 3149 
C 2534 3418 2253 3565 1843 3565 
C 1050 3565 339 2861 339 1734 
C 339 576 902 -83 1773 -83 
C 2176 -83 2541 128 2822 403 
L 2790 -230 
L 2790 -1466 
z
M 1901 410 
C 1293 410 941 902 941 1741 
C 941 2534 1389 3072 1946 3072 
C 2234 3072 2502 2970 2790 2707 
L 2790 883 
C 2502 563 2221 410 1901 410 
z
" transform="scale(0.015625)"/>
       <path id="NotoSansCJKjp-Regular-75" d="M 1606 -83 
C 2080 -83 2426 166 2752 544 
L 2771 544 
L 2816 0 
L 3302 0 
L 3302 3475 
L 2720 3475 
L 2720 1011 
C 2387 602 2138 422 1779 422 
C 1318 422 1126 698 1126 1344 
L 1126 3475 
L 538 3475 
L 538 1274 
C 538 384 870 -83 1606 -83 
z
" transform="scale(0.015625)"/>
       <path id="NotoSansCJKjp-Regular-6e" d="M 589 0 
L 1178 0 
L 1178 2522 
C 1523 2874 1766 3053 2125 3053 
C 2586 3053 2784 2778 2784 2125 
L 2784 0 
L 3366 0 
L 3366 2202 
C 3366 3085 3034 3565 2304 3565 
C 1830 3565 1466 3302 1139 2970 
L 1126 2970 
L 1069 3475 
L 589 3475 
L 589 0 
z
" transform="scale(0.015625)"/>
       <path id="NotoSansCJKjp-Regular-74" d="M 1677 -83 
C 1894 -83 2125 -19 2323 45 
L 2208 486 
C 2093 435 1939 390 1811 390 
C 1408 390 1274 634 1274 1056 
L 1274 3002 
L 2221 3002 
L 2221 3475 
L 1274 3475 
L 1274 4454 
L 787 4454 
L 723 3475 
L 173 3443 
L 173 3002 
L 691 3002 
L 691 1075 
C 691 378 941 -83 1677 -83 
z
" transform="scale(0.015625)"/>
       <path id="NotoSansCJKjp-Regular-6c" d="M 1203 -83 
C 1363 -83 1459 -58 1542 -32 
L 1459 416 
C 1395 403 1370 403 1338 403 
C 1248 403 1178 474 1178 653 
L 1178 5094 
L 589 5094 
L 589 691 
C 589 198 768 -83 1203 -83 
z
" transform="scale(0.015625)"/>
       <path id="NotoSansCJKjp-Regular-72" d="M 589 0 
L 1178 0 
L 1178 2234 
C 1408 2822 1760 3040 2048 3040 
C 2195 3040 2272 3021 2387 2982 
L 2496 3488 
C 2387 3546 2278 3565 2125 3565 
C 1741 3565 1382 3283 1139 2842 
L 1126 2842 
L 1069 3475 
L 589 3475 
L 589 0 
z
" transform="scale(0.015625)"/>
      </defs>
      <use xlink:href="#NotoSansCJKjp-Regular-53"/>
      <use xlink:href="#NotoSansCJKjp-Regular-65" x="59.599991"/>
      <use xlink:href="#NotoSansCJKjp-Regular-71" x="114.999985"/>
      <use xlink:href="#NotoSansCJKjp-Regular-75" x="176.999969"/>
      <use xlink:href="#NotoSansCJKjp-Regular-65" x="237.699966"/>
      <use xlink:href="#NotoSansCJKjp-Regular-6e" x="293.09996"/>
      <use xlink:href="#NotoSansCJKjp-Regular-74" x="354.099945"/>
      <use xlink:href="#NotoSansCJKjp-Regular-69" x="391.799942"/>
      <use xlink:href="#NotoSansCJKjp-Regular-61" x="419.299927"/>
      <use xlink:href="#NotoSansCJKjp-Regular-6c" x="475.599915"/>
      <use xlink:href="#NotoSansCJKjp-Regular-20" x="503.999908"/>
      <use xlink:href="#NotoSansCJKjp-Regular-74" x="526.399902"/>
      <use xlink:href="#NotoSansCJKjp-Regular-72" x="564.099899"/>
      <use xlink:href="#NotoSansCJKjp-Regular-61" x="602.899887"/>
      <use xlink:href="#NotoSansCJKjp-Regular-69" x="659.199875"/>
      <use xlink:href="#NotoSansCJKjp-Regular-6e" x="686.69986"/>
     </g>
    </g>
    <g id="patch_10">
     <path d="M 334.165062 88.452312 
L 356.165062 88.452312 
L 356.165062 80.752312 
L 334.165062 80.752312 
z
" style="fill: #a47b36; stroke: #a47b36; stroke-linejoin: miter"/>
    </g>
    <g id="text_17">
     <!-- 2025 -->
     <g transform="translate(364.965062 88.452312) scale(0.11 -0.11)">
      <use xlink:href="#NotoSansCJKjp-Regular-32"/>
      <use xlink:href="#NotoSansCJKjp-Regular-30" x="55.499985"/>
      <use xlink:href="#NotoSansCJKjp-Regular-32" x="110.999969"/>
      <use xlink:href="#NotoSansCJKjp-Regular-35" x="166.499954"/>
     </g>
    </g>
   </g>
  </g>
  <g id="text_18">
   <!-- Allocation improvements did not pass training -->
   <g style="fill: #172c35" transform="translate(42.12 42.13875) scale(0.2 -0.2)">
    <defs>
     <path id="NotoSansCJKjp-Bold-41" d="M -26 0 
L 934 0 
L 1267 1216 
L 2797 1216 
L 3130 0 
L 4128 0 
L 2611 4742 
L 1491 4742 
L -26 0 
z
M 1472 1952 
L 1613 2470 
C 1754 2963 1888 3501 2016 4019 
L 2042 4019 
C 2182 3514 2310 2963 2458 2470 
L 2598 1952 
L 1472 1952 
z
" transform="scale(0.015625)"/>
     <path id="NotoSansCJKjp-Bold-6c" d="M 1395 -90 
C 1613 -90 1766 -51 1875 -6 
L 1760 691 
C 1696 678 1670 678 1632 678 
C 1542 678 1446 749 1446 966 
L 1446 5107 
L 506 5107 
L 506 1005 
C 506 339 736 -90 1395 -90 
z
" transform="scale(0.015625)"/>
     <path id="NotoSansCJKjp-Bold-6f" d="M 2003 -90 
C 2899 -90 3725 602 3725 1792 
C 3725 2982 2899 3674 2003 3674 
C 1101 3674 282 2982 282 1792 
C 282 602 1101 -90 2003 -90 
z
M 2003 678 
C 1510 678 1242 1114 1242 1792 
C 1242 2464 1510 2906 2003 2906 
C 2490 2906 2765 2464 2765 1792 
C 2765 1114 2490 678 2003 678 
z
" transform="scale(0.015625)"/>
     <path id="NotoSansCJKjp-Bold-63" d="M 2029 -90 
C 2426 -90 2861 45 3200 346 
L 2829 966 
C 2630 800 2394 678 2131 678 
C 1613 678 1242 1114 1242 1792 
C 1242 2464 1613 2906 2163 2906 
C 2362 2906 2528 2822 2707 2675 
L 3155 3270 
C 2893 3507 2554 3674 2112 3674 
C 1139 3674 282 2982 282 1792 
C 282 602 1043 -90 2029 -90 
z
" transform="scale(0.015625)"/>
     <path id="NotoSansCJKjp-Bold-61" d="M 1382 -90 
C 1798 -90 2157 109 2464 384 
L 2496 384 
L 2560 0 
L 3328 0 
L 3328 2093 
C 3328 3130 2861 3674 1952 3674 
C 1389 3674 877 3456 461 3200 
L 794 2573 
C 1126 2771 1446 2918 1779 2918 
C 2221 2918 2374 2650 2387 2298 
C 947 2144 326 1741 326 979 
C 326 365 742 -90 1382 -90 
z
M 1696 646 
C 1421 646 1222 768 1222 1050 
C 1222 1376 1510 1613 2387 1715 
L 2387 998 
C 2163 774 1965 646 1696 646 
z
" transform="scale(0.015625)"/>
     <path id="NotoSansCJKjp-Bold-74" d="M 1818 -90 
C 2131 -90 2381 -13 2579 45 
L 2419 730 
C 2323 691 2182 653 2067 653 
C 1747 653 1574 845 1574 1254 
L 1574 2842 
L 2464 2842 
L 2464 3584 
L 1574 3584 
L 1574 4550 
L 800 4550 
L 691 3584 
L 134 3539 
L 134 2842 
L 640 2842 
L 640 1248 
C 640 454 966 -90 1818 -90 
z
" transform="scale(0.015625)"/>
     <path id="NotoSansCJKjp-Bold-69" d="M 506 0 
L 1446 0 
L 1446 3584 
L 506 3584 
L 506 0 
z
M 979 4166 
C 1299 4166 1523 4365 1523 4678 
C 1523 4986 1299 5190 979 5190 
C 646 5190 435 4986 435 4678 
C 435 4365 646 4166 979 4166 
z
" transform="scale(0.015625)"/>
     <path id="NotoSansCJKjp-Bold-6e" d="M 506 0 
L 1446 0 
L 1446 2464 
C 1709 2726 1901 2867 2189 2867 
C 2541 2867 2694 2675 2694 2118 
L 2694 0 
L 3635 0 
L 3635 2234 
C 3635 3136 3302 3674 2528 3674 
C 2042 3674 1677 3418 1363 3110 
L 1344 3110 
L 1274 3584 
L 506 3584 
L 506 0 
z
" transform="scale(0.015625)"/>
     <path id="NotoSansCJKjp-Bold-20" transform="scale(0.015625)"/>
     <path id="NotoSansCJKjp-Bold-6d" d="M 506 0 
L 1446 0 
L 1446 2464 
C 1696 2739 1926 2867 2131 2867 
C 2477 2867 2637 2675 2637 2118 
L 2637 0 
L 3571 0 
L 3571 2464 
C 3827 2739 4058 2867 4262 2867 
C 4602 2867 4762 2675 4762 2118 
L 4762 0 
L 5696 0 
L 5696 2234 
C 5696 3136 5350 3674 4589 3674 
C 4128 3674 3776 3392 3443 3046 
C 3277 3443 2976 3674 2464 3674 
C 1997 3674 1664 3418 1363 3104 
L 1344 3104 
L 1274 3584 
L 506 3584 
L 506 0 
z
" transform="scale(0.015625)"/>
     <path id="NotoSansCJKjp-Bold-70" d="M 506 -1376 
L 1446 -1376 
L 1446 -282 
L 1414 301 
C 1683 51 1990 -90 2304 -90 
C 3091 -90 3827 621 3827 1850 
C 3827 2950 3296 3674 2419 3674 
C 2029 3674 1664 3469 1363 3213 
L 1344 3213 
L 1274 3584 
L 506 3584 
L 506 -1376 
z
M 2099 685 
C 1901 685 1677 755 1446 954 
L 1446 2534 
C 1690 2778 1907 2899 2150 2899 
C 2643 2899 2861 2522 2861 1837 
C 2861 1056 2522 685 2099 685 
z
" transform="scale(0.015625)"/>
     <path id="NotoSansCJKjp-Bold-72" d="M 506 0 
L 1446 0 
L 1446 2138 
C 1651 2656 1984 2842 2259 2842 
C 2413 2842 2515 2822 2643 2784 
L 2797 3597 
C 2694 3642 2579 3674 2381 3674 
C 2010 3674 1626 3418 1363 2950 
L 1344 2950 
L 1274 3584 
L 506 3584 
L 506 0 
z
" transform="scale(0.015625)"/>
     <path id="NotoSansCJKjp-Bold-76" d="M 1312 0 
L 2400 0 
L 3597 3584 
L 2694 3584 
L 2170 1798 
C 2074 1446 1978 1075 1882 710 
L 1850 710 
C 1747 1075 1658 1446 1555 1798 
L 1037 3584 
L 90 3584 
L 1312 0 
z
" transform="scale(0.015625)"/>
     <path id="NotoSansCJKjp-Bold-65" d="M 2067 -90 
C 2509 -90 2963 64 3315 307 
L 2995 883 
C 2733 723 2483 640 2195 640 
C 1658 640 1274 941 1197 1523 
L 3405 1523 
C 3430 1613 3450 1786 3450 1958 
C 3450 2957 2938 3674 1952 3674 
C 1101 3674 282 2950 282 1792 
C 282 608 1062 -90 2067 -90 
z
M 1178 2157 
C 1254 2675 1587 2944 1965 2944 
C 2432 2944 2643 2637 2643 2157 
L 1178 2157 
z
" transform="scale(0.015625)"/>
     <path id="NotoSansCJKjp-Bold-73" d="M 1530 -90 
C 2458 -90 2957 410 2957 1043 
C 2957 1702 2432 1946 1958 2125 
C 1574 2266 1248 2362 1248 2624 
C 1248 2829 1402 2970 1728 2970 
C 1990 2970 2240 2842 2496 2662 
L 2918 3232 
C 2624 3462 2221 3674 1702 3674 
C 883 3674 365 3219 365 2579 
C 365 1978 870 1702 1325 1530 
C 1702 1382 2074 1261 2074 992 
C 2074 768 1914 614 1555 614 
C 1216 614 915 762 595 1005 
L 166 410 
C 525 115 1050 -90 1530 -90 
z
" transform="scale(0.015625)"/>
     <path id="NotoSansCJKjp-Bold-64" d="M 1766 -90 
C 2138 -90 2496 109 2758 371 
L 2784 371 
L 2854 0 
L 3622 0 
L 3622 5107 
L 2682 5107 
L 2682 3846 
L 2714 3283 
C 2458 3520 2208 3674 1805 3674 
C 1037 3674 301 2957 301 1792 
C 301 614 870 -90 1766 -90 
z
M 2010 685 
C 1536 685 1267 1056 1267 1805 
C 1267 2515 1606 2899 2010 2899 
C 2240 2899 2464 2829 2682 2630 
L 2682 1056 
C 2477 787 2259 685 2010 685 
z
" transform="scale(0.015625)"/>
     <path id="NotoSansCJKjp-Bold-67" d="M 1766 -1555 
C 2963 -1555 3718 -1005 3718 -282 
C 3718 346 3245 614 2381 614 
L 1766 614 
C 1350 614 1203 717 1203 902 
C 1203 1056 1267 1133 1357 1216 
C 1517 1158 1683 1133 1818 1133 
C 2592 1133 3206 1536 3206 2349 
C 3206 2573 3136 2771 3046 2893 
L 3654 2893 
L 3654 3584 
L 2368 3584 
C 2214 3635 2029 3674 1818 3674 
C 1062 3674 378 3219 378 2381 
C 378 1958 608 1619 858 1440 
L 858 1414 
C 640 1261 461 1011 461 749 
C 461 448 595 262 787 141 
L 787 109 
C 448 -77 275 -333 275 -634 
C 275 -1267 922 -1555 1766 -1555 
z
M 1818 1715 
C 1510 1715 1261 1952 1261 2381 
C 1261 2797 1504 3027 1818 3027 
C 2138 3027 2387 2797 2387 2381 
C 2387 1952 2138 1715 1818 1715 
z
M 1907 -954 
C 1389 -954 1056 -787 1056 -493 
C 1056 -339 1126 -198 1286 -70 
C 1421 -102 1568 -115 1779 -115 
L 2221 -115 
C 2605 -115 2816 -186 2816 -442 
C 2816 -717 2451 -954 1907 -954 
z
" transform="scale(0.015625)"/>
    </defs>
    <use xlink:href="#NotoSansCJKjp-Bold-41"/>
    <use xlink:href="#NotoSansCJKjp-Bold-6c" x="64.099991"/>
    <use xlink:href="#NotoSansCJKjp-Bold-6c" x="95.599976"/>
    <use xlink:href="#NotoSansCJKjp-Bold-6f" x="127.09996"/>
    <use xlink:href="#NotoSansCJKjp-Bold-63" x="189.699951"/>
    <use xlink:href="#NotoSansCJKjp-Bold-61" x="242.399948"/>
    <use xlink:href="#NotoSansCJKjp-Bold-74" x="301.499939"/>
    <use xlink:href="#NotoSansCJKjp-Bold-69" x="343.59993"/>
    <use xlink:href="#NotoSansCJKjp-Bold-6f" x="373.999924"/>
    <use xlink:href="#NotoSansCJKjp-Bold-6e" x="436.599915"/>
    <use xlink:href="#NotoSansCJKjp-Bold-20" x="500.699905"/>
    <use xlink:href="#NotoSansCJKjp-Bold-69" x="523.399902"/>
    <use xlink:href="#NotoSansCJKjp-Bold-6d" x="553.799896"/>
    <use xlink:href="#NotoSansCJKjp-Bold-70" x="650.19989"/>
    <use xlink:href="#NotoSansCJKjp-Bold-72" x="714.599884"/>
    <use xlink:href="#NotoSansCJKjp-Bold-6f" x="758.199875"/>
    <use xlink:href="#NotoSansCJKjp-Bold-76" x="820.799866"/>
    <use xlink:href="#NotoSansCJKjp-Bold-65" x="878.399857"/>
    <use xlink:href="#NotoSansCJKjp-Bold-6d" x="936.499847"/>
    <use xlink:href="#NotoSansCJKjp-Bold-65" x="1032.899841"/>
    <use xlink:href="#NotoSansCJKjp-Bold-6e" x="1090.999832"/>
    <use xlink:href="#NotoSansCJKjp-Bold-74" x="1155.099823"/>
    <use xlink:href="#NotoSansCJKjp-Bold-73" x="1197.199814"/>
    <use xlink:href="#NotoSansCJKjp-Bold-20" x="1246.699799"/>
    <use xlink:href="#NotoSansCJKjp-Bold-64" x="1269.399796"/>
    <use xlink:href="#NotoSansCJKjp-Bold-69" x="1333.799789"/>
    <use xlink:href="#NotoSansCJKjp-Bold-64" x="1364.199783"/>
    <use xlink:href="#NotoSansCJKjp-Bold-20" x="1428.599777"/>
    <use xlink:href="#NotoSansCJKjp-Bold-6e" x="1451.299774"/>
    <use xlink:href="#NotoSansCJKjp-Bold-6f" x="1515.399765"/>
    <use xlink:href="#NotoSansCJKjp-Bold-74" x="1577.999756"/>
    <use xlink:href="#NotoSansCJKjp-Bold-20" x="1620.099747"/>
    <use xlink:href="#NotoSansCJKjp-Bold-70" x="1642.799744"/>
    <use xlink:href="#NotoSansCJKjp-Bold-61" x="1707.199738"/>
    <use xlink:href="#NotoSansCJKjp-Bold-73" x="1766.299728"/>
    <use xlink:href="#NotoSansCJKjp-Bold-73" x="1815.799713"/>
    <use xlink:href="#NotoSansCJKjp-Bold-20" x="1865.299698"/>
    <use xlink:href="#NotoSansCJKjp-Bold-74" x="1887.999695"/>
    <use xlink:href="#NotoSansCJKjp-Bold-72" x="1930.099686"/>
    <use xlink:href="#NotoSansCJKjp-Bold-61" x="1973.699677"/>
    <use xlink:href="#NotoSansCJKjp-Bold-69" x="2032.799667"/>
    <use xlink:href="#NotoSansCJKjp-Bold-6e" x="2063.199661"/>
    <use xlink:href="#NotoSansCJKjp-Bold-69" x="2127.299652"/>
    <use xlink:href="#NotoSansCJKjp-Bold-6e" x="2157.699646"/>
    <use xlink:href="#NotoSansCJKjp-Bold-67" x="2221.799637"/>
   </g>
  </g>
  <g id="text_19">
   <!-- INVESTING ON MY OWN  /  08.3  /  2026-09-22 -->
   <g style="fill: #67767a" transform="translate(42.12 408.24) scale(0.09 -0.09)">
    <defs>
     <path id="NotoSansCJKjp-Regular-49" d="M 646 0 
L 1235 0 
L 1235 4691 
L 646 4691 
L 646 0 
z
" transform="scale(0.015625)"/>
     <path id="NotoSansCJKjp-Regular-4e" d="M 646 0 
L 1203 0 
L 1203 2464 
C 1203 2957 1158 3456 1133 3930 
L 1158 3930 
L 1664 2963 
L 3373 0 
L 3981 0 
L 3981 4691 
L 3418 4691 
L 3418 2253 
C 3418 1766 3462 1235 3501 768 
L 3469 768 
L 2963 1734 
L 1248 4691 
L 646 4691 
L 646 0 
z
" transform="scale(0.015625)"/>
     <path id="NotoSansCJKjp-Regular-56" d="M 1504 0 
L 2189 0 
L 3680 4691 
L 3078 4691 
L 2323 2150 
C 2163 1600 2048 1152 1869 602 
L 1843 602 
C 1670 1152 1549 1600 1389 2150 
L 627 4691 
L 6 4691 
L 1504 0 
z
" transform="scale(0.015625)"/>
     <path id="NotoSansCJKjp-Regular-45" d="M 646 0 
L 3418 0 
L 3418 506 
L 1235 506 
L 1235 2214 
L 3014 2214 
L 3014 2720 
L 1235 2720 
L 1235 4192 
L 3347 4192 
L 3347 4691 
L 646 4691 
L 646 0 
z
" transform="scale(0.015625)"/>
     <path id="NotoSansCJKjp-Regular-54" d="M 1619 0 
L 2214 0 
L 2214 4192 
L 3635 4192 
L 3635 4691 
L 198 4691 
L 198 4192 
L 1619 4192 
L 1619 0 
z
" transform="scale(0.015625)"/>
     <path id="NotoSansCJKjp-Regular-4f" d="M 2374 -83 
C 3552 -83 4378 858 4378 2362 
C 4378 3866 3552 4774 2374 4774 
C 1197 4774 371 3866 371 2362 
C 371 858 1197 -83 2374 -83 
z
M 2374 435 
C 1530 435 979 1190 979 2362 
C 979 3533 1530 4256 2374 4256 
C 3219 4256 3770 3533 3770 2362 
C 3770 1190 3219 435 2374 435 
z
" transform="scale(0.015625)"/>
     <path id="NotoSansCJKjp-Regular-59" d="M 1402 0 
L 1990 0 
L 1990 1818 
L 3405 4691 
L 2790 4691 
L 2189 3366 
C 2042 3021 1882 2688 1715 2336 
L 1690 2336 
C 1523 2688 1382 3021 1229 3366 
L 621 4691 
L -6 4691 
L 1402 1818 
L 1402 0 
z
" transform="scale(0.015625)"/>
     <path id="NotoSansCJKjp-Regular-57" d="M 1158 0 
L 1862 0 
L 2560 2829 
C 2637 3200 2726 3539 2797 3898 
L 2822 3898 
C 2899 3539 2970 3200 3053 2829 
L 3763 0 
L 4480 0 
L 5446 4691 
L 4883 4691 
L 4378 2138 
C 4294 1632 4205 1126 4122 614 
L 4083 614 
C 3968 1126 3866 1638 3750 2138 
L 3098 4691 
L 2554 4691 
L 1907 2138 
C 1792 1632 1677 1126 1574 614 
L 1549 614 
C 1453 1126 1363 1632 1267 2138 
L 774 4691 
L 166 4691 
L 1158 0 
z
" transform="scale(0.015625)"/>
     <path id="NotoSansCJKjp-Regular-2f" d="M 70 -1146 
L 499 -1146 
L 2413 5082 
L 1990 5082 
L 70 -1146 
z
" transform="scale(0.015625)"/>
    </defs>
    <use xlink:href="#NotoSansCJKjp-Regular-49"/>
    <use xlink:href="#NotoSansCJKjp-Regular-4e" x="29.299988"/>
    <use xlink:href="#NotoSansCJKjp-Regular-56" x="101.599976"/>
    <use xlink:href="#NotoSansCJKjp-Regular-45" x="159.09996"/>
    <use xlink:href="#NotoSansCJKjp-Regular-53" x="217.999954"/>
    <use xlink:href="#NotoSansCJKjp-Regular-54" x="277.599945"/>
    <use xlink:href="#NotoSansCJKjp-Regular-49" x="337.499939"/>
    <use xlink:href="#NotoSansCJKjp-Regular-4e" x="366.799927"/>
    <use xlink:href="#NotoSansCJKjp-Regular-47" x="439.099915"/>
    <use xlink:href="#NotoSansCJKjp-Regular-20" x="507.999908"/>
    <use xlink:href="#NotoSansCJKjp-Regular-4f" x="530.399902"/>
    <use xlink:href="#NotoSansCJKjp-Regular-4e" x="604.599884"/>
    <use xlink:href="#NotoSansCJKjp-Regular-20" x="676.899872"/>
    <use xlink:href="#NotoSansCJKjp-Regular-4d" x="699.299866"/>
    <use xlink:href="#NotoSansCJKjp-Regular-59" x="780.499847"/>
    <use xlink:href="#NotoSansCJKjp-Regular-20" x="833.599838"/>
    <use xlink:href="#NotoSansCJKjp-Regular-4f" x="855.999832"/>
    <use xlink:href="#NotoSansCJKjp-Regular-57" x="930.199814"/>
    <use xlink:href="#NotoSansCJKjp-Regular-4e" x="1017.999802"/>
    <use xlink:href="#NotoSansCJKjp-Regular-20" x="1090.299789"/>
    <use xlink:href="#NotoSansCJKjp-Regular-20" x="1112.699783"/>
    <use xlink:href="#NotoSansCJKjp-Regular-2f" x="1135.099777"/>
    <use xlink:href="#NotoSansCJKjp-Regular-20" x="1174.299774"/>
    <use xlink:href="#NotoSansCJKjp-Regular-20" x="1196.699768"/>
    <use xlink:href="#NotoSansCJKjp-Regular-30" x="1219.099762"/>
    <use xlink:href="#NotoSansCJKjp-Regular-38" x="1274.599747"/>
    <use xlink:href="#NotoSansCJKjp-Regular-2e" x="1330.099731"/>
    <use xlink:href="#NotoSansCJKjp-Regular-33" x="1357.899719"/>
    <use xlink:href="#NotoSansCJKjp-Regular-20" x="1413.399704"/>
    <use xlink:href="#NotoSansCJKjp-Regular-20" x="1435.799698"/>
    <use xlink:href="#NotoSansCJKjp-Regular-2f" x="1458.199692"/>
    <use xlink:href="#NotoSansCJKjp-Regular-20" x="1497.399689"/>
    <use xlink:href="#NotoSansCJKjp-Regular-20" x="1519.799683"/>
    <use xlink:href="#NotoSansCJKjp-Regular-32" x="1542.199677"/>
    <use xlink:href="#NotoSansCJKjp-Regular-30" x="1597.699661"/>
    <use xlink:href="#NotoSansCJKjp-Regular-32" x="1653.199646"/>
    <use xlink:href="#NotoSansCJKjp-Regular-36" x="1708.699631"/>
    <use xlink:href="#NotoSansCJKjp-Regular-2d" x="1764.199615"/>
    <use xlink:href="#NotoSansCJKjp-Regular-30" x="1798.899612"/>
    <use xlink:href="#NotoSansCJKjp-Regular-39" x="1854.399597"/>
    <use xlink:href="#NotoSansCJKjp-Regular-2d" x="1909.899582"/>
    <use xlink:href="#NotoSansCJKjp-Regular-32" x="1944.599579"/>
    <use xlink:href="#NotoSansCJKjp-Regular-32" x="2000.099564"/>
   </g>
  </g>
 </g>
 <defs>
  <clipPath id="p0f3806d307">
   <rect x="200.88" y="108" width="388.8" height="237.6"/>
  </clipPath>
 </defs>
</svg>
