<?xml version="1.0" encoding="utf-8" standalone="no"?>
<!DOCTYPE svg PUBLIC "-//W3C//DTD SVG 1.1//EN"
  "http://www.w3.org/Graphics/SVG/1.1/DTD/svg11.dtd">
<svg xmlns:xlink="http://www.w3.org/1999/xlink" width="648pt" height="432pt" viewBox="0 0 648 432" xmlns="http://www.w3.org/2000/svg" version="1.1">
 <metadata>
  <rdf:RDF xmlns:dc="http://purl.org/dc/elements/1.1/" xmlns:cc="http://creativecommons.org/ns#" xmlns:rdf="http://www.w3.org/1999/02/22-rdf-syntax-ns#">
   <cc:Work>
    <dc:type rdf:resource="http://purl.org/dc/dcmitype/StillImage"/>
    <dc:format>image/svg+xml</dc:format>
    <dc:creator>
     <cc:Agent>
      <dc:title>Matplotlib</dc:title>
     </cc:Agent>
    </dc:creator>
   </cc:Work>
  </rdf:RDF>
 </metadata>
 <defs>
  <style type="text/css">*{stroke-linejoin: round; stroke-linecap: butt}</style>
 </defs>
 <g id="figure_1">
  <g id="patch_1">
   <path d="M 0 432 
L 648 432 
L 648 0 
L 0 0 
z
" style="fill: #faf8f3"/>
  </g>
  <g id="axes_1">
   <g id="patch_2">
    <path d="M 77.65632 173.74464 
L 570.34368 173.74464 
Q 604.55808 173.74464 604.55808 167.86944 
L 604.55808 106.76736 
Q 604.55808 100.89216 570.34368 100.89216 
L 77.65632 100.89216 
Q 43.44192 100.89216 43.44192 106.76736 
L 43.44192 167.86944 
Q 43.44192 173.74464 77.65632 173.74464 
z
" clip-path="url(#pe8b97433e2)" style="fill: #e9eeea; stroke: #cad8d0; stroke-width: 1.1; stroke-linejoin: miter"/>
   </g>
   <g id="patch_3">
    <path d="M 77.65632 271.66464 
L 570.34368 271.66464 
Q 604.55808 271.66464 604.55808 265.78944 
L 604.55808 204.68736 
Q 604.55808 198.81216 570.34368 198.81216 
L 77.65632 198.81216 
Q 43.44192 198.81216 43.44192 204.68736 
L 43.44192 265.78944 
Q 43.44192 271.66464 77.65632 271.66464 
z
" clip-path="url(#pe8b97433e2)" style="fill: #e9eeea; stroke: #cad8d0; stroke-width: 1.1; stroke-linejoin: miter"/>
   </g>
   <g id="patch_4">
    <path d="M 77.65632 369.58464 
L 570.34368 369.58464 
Q 604.55808 369.58464 604.55808 363.70944 
L 604.55808 302.60736 
Q 604.55808 296.73216 570.34368 296.73216 
L 77.65632 296.73216 
Q 43.44192 296.73216 43.44192 302.60736 
L 43.44192 363.70944 
Q 43.44192 369.58464 77.65632 369.58464 
z
" clip-path="url(#pe8b97433e2)" style="fill: #e9eeea; stroke: #cad8d0; stroke-width: 1.1; stroke-linejoin: miter"/>
   </g>
   <g id="text_1">
    <!-- 01 -->
    <g style="fill: #127b79" transform="translate(80.1716 142.273634) scale(0.17 -0.17)">
     <defs>
      <path id="NotoSansCJKjp-Bold-30" d="M 1888 -90 
C 2854 -90 3494 755 3494 2394 
C 3494 4019 2854 4826 1888 4826 
C 922 4826 282 4026 282 2394 
C 282 755 922 -90 1888 -90 
z
M 1888 646 
C 1478 646 1171 1056 1171 2394 
C 1171 3712 1478 4102 1888 4102 
C 2298 4102 2598 3712 2598 2394 
C 2598 1056 2298 646 1888 646 
z
" transform="scale(0.015625)"/>
      <path id="NotoSansCJKjp-Bold-31" d="M 525 0 
L 3373 0 
L 3373 768 
L 2483 768 
L 2483 4742 
L 1786 4742 
C 1485 4550 1165 4429 685 4346 
L 685 3757 
L 1549 3757 
L 1549 768 
L 525 768 
L 525 0 
z
" transform="scale(0.015625)"/>
     </defs>
     <use xlink:href="#NotoSansCJKjp-Bold-30"/>
     <use xlink:href="#NotoSansCJKjp-Bold-31" x="58.999985"/>
    </g>
   </g>
   <g id="text_2">
    <!-- ATM IV -->
    <g style="fill: #172c35" transform="translate(330.214556 130.688072) scale(0.18 -0.18)">
     <defs>
      <path id="NotoSansCJKjp-Regular-41" d="M 26 0 
L 621 0 
L 1075 1434 
L 2790 1434 
L 3238 0 
L 3866 0 
L 2272 4691 
L 1613 4691 
L 26 0 
z
M 1222 1901 
L 1453 2624 
C 1619 3155 1773 3661 1920 4211 
L 1946 4211 
C 2099 3667 2246 3155 2419 2624 
L 2643 1901 
L 1222 1901 
z
" transform="scale(0.015625)"/>
      <path id="NotoSansCJKjp-Regular-54" d="M 1619 0 
L 2214 0 
L 2214 4192 
L 3635 4192 
L 3635 4691 
L 198 4691 
L 198 4192 
L 1619 4192 
L 1619 0 
z
" transform="scale(0.015625)"/>
      <path id="NotoSansCJKjp-Regular-4d" d="M 646 0 
L 1178 0 
L 1178 2598 
C 1178 3002 1139 3571 1101 3981 
L 1126 3981 
L 1504 2912 
L 2394 474 
L 2790 474 
L 3674 2912 
L 4051 3981 
L 4077 3981 
C 4045 3571 4000 3002 4000 2598 
L 4000 0 
L 4550 0 
L 4550 4691 
L 3840 4691 
L 2944 2182 
C 2835 1862 2739 1530 2618 1203 
L 2592 1203 
C 2477 1530 2374 1862 2253 2182 
L 1357 4691 
L 646 4691 
L 646 0 
z
" transform="scale(0.015625)"/>
      <path id="NotoSansCJKjp-Regular-20" transform="scale(0.015625)"/>
      <path id="NotoSansCJKjp-Regular-49" d="M 646 0 
L 1235 0 
L 1235 4691 
L 646 4691 
L 646 0 
z
" transform="scale(0.015625)"/>
      <path id="NotoSansCJKjp-Regular-56" d="M 1504 0 
L 2189 0 
L 3680 4691 
L 3078 4691 
L 2323 2150 
C 2163 1600 2048 1152 1869 602 
L 1843 602 
C 1670 1152 1549 1600 1389 2150 
L 627 4691 
L 6 4691 
L 1504 0 
z
" transform="scale(0.015625)"/>
     </defs>
     <use xlink:href="#NotoSansCJKjp-Regular-41"/>
     <use xlink:href="#NotoSansCJKjp-Regular-54" x="60.799988"/>
     <use xlink:href="#NotoSansCJKjp-Regular-4d" x="120.699982"/>
     <use xlink:href="#NotoSansCJKjp-Regular-20" x="201.899963"/>
     <use xlink:href="#NotoSansCJKjp-Regular-49" x="224.299957"/>
     <use xlink:href="#NotoSansCJKjp-Regular-56" x="253.599945"/>
    </g>
    <!-- 중심 옵션의 변동성 -->
    <g style="fill: #172c35" transform="translate(287.941275 154.152478) scale(0.18 -0.18)">
     <defs>
      <path id="NotoSansCJKjp-Regular-c911" d="M 2931 1133 
C 3834 1133 4378 915 4378 531 
C 4378 147 3834 -77 2931 -77 
C 2022 -77 1485 147 1485 531 
C 1485 915 2022 1133 2931 1133 
z
M 320 2586 
L 320 2150 
L 2669 2150 
L 2669 1542 
C 1587 1491 947 1139 947 531 
C 947 -122 1690 -486 2931 -486 
C 4166 -486 4909 -122 4909 531 
C 4909 1139 4269 1491 3194 1542 
L 3194 2150 
L 5549 2150 
L 5549 2586 
L 320 2586 
z
M 800 5024 
L 800 4595 
L 2592 4595 
C 2547 3962 1619 3462 614 3354 
L 800 2931 
C 1760 3046 2624 3475 2931 4109 
C 3251 3475 4115 3046 5069 2931 
L 5261 3354 
C 4243 3462 3322 3962 3277 4595 
L 5075 4595 
L 5075 5024 
L 800 5024 
z
" transform="scale(0.015625)"/>
      <path id="NotoSansCJKjp-Regular-c2ec" d="M 4531 5286 
L 4531 2003 
L 5062 2003 
L 5062 5286 
L 4531 5286 
z
M 1325 1670 
L 1325 -422 
L 5062 -422 
L 5062 1670 
L 1325 1670 
z
M 4544 1242 
L 4544 13 
L 1843 13 
L 1843 1242 
L 4544 1242 
z
M 1824 5062 
L 1824 4499 
C 1824 3654 1235 2874 365 2566 
L 627 2144 
C 1318 2400 1843 2931 2099 3590 
C 2362 2970 2886 2490 3552 2259 
L 3814 2669 
C 2963 2963 2362 3686 2362 4499 
L 2362 5062 
L 1824 5062 
z
" transform="scale(0.015625)"/>
      <path id="NotoSansCJKjp-Regular-c635" d="M 2931 4800 
C 3853 4800 4422 4557 4422 4141 
C 4422 3738 3853 3494 2931 3494 
C 2010 3494 1440 3738 1440 4141 
C 1440 4557 2010 4800 2931 4800 
z
M 979 1779 
L 979 -422 
L 4883 -422 
L 4883 1779 
L 4352 1779 
L 4352 1146 
L 1504 1146 
L 1504 1779 
L 979 1779 
z
M 1504 730 
L 4352 730 
L 4352 13 
L 1504 13 
L 1504 730 
z
M 320 2554 
L 320 2118 
L 5549 2118 
L 5549 2554 
L 3187 2554 
L 3187 3085 
C 4294 3136 4966 3514 4966 4141 
C 4966 4819 4192 5203 2931 5203 
C 1677 5203 896 4819 896 4141 
C 896 3520 1568 3136 2669 3085 
L 2669 2554 
L 320 2554 
z
" transform="scale(0.015625)"/>
      <path id="NotoSansCJKjp-Regular-c158" d="M 4550 5286 
L 4550 4435 
L 3386 4435 
L 3386 4000 
L 4550 4000 
L 4550 3251 
L 3386 3251 
L 3386 2816 
L 4550 2816 
L 4550 966 
L 5082 966 
L 5082 5286 
L 4550 5286 
z
M 1773 4966 
L 1773 4230 
C 1773 3322 1190 2490 333 2157 
L 614 1734 
C 1286 2010 1798 2566 2042 3270 
C 2285 2618 2771 2093 3398 1837 
L 3693 2253 
C 2861 2579 2298 3379 2298 4230 
L 2298 4966 
L 1773 4966 
z
M 1363 1408 
L 1363 -371 
L 5216 -371 
L 5216 64 
L 1894 64 
L 1894 1408 
L 1363 1408 
z
" transform="scale(0.015625)"/>
      <path id="NotoSansCJKjp-Regular-c758" d="M 2195 4870 
C 1293 4870 640 4314 640 3507 
C 640 2701 1293 2144 2195 2144 
C 3098 2144 3744 2701 3744 3507 
C 3744 4314 3098 4870 2195 4870 
z
M 2195 4410 
C 2790 4410 3226 4045 3226 3507 
C 3226 2970 2790 2605 2195 2605 
C 1600 2605 1165 2970 1165 3507 
C 1165 4045 1600 4410 2195 4410 
z
M 4506 5293 
L 4506 -506 
L 5037 -506 
L 5037 5293 
L 4506 5293 
z
M 422 762 
C 1459 762 2867 768 4173 1018 
L 4128 1408 
C 2867 1216 1408 1210 352 1210 
L 422 762 
z
" transform="scale(0.015625)"/>
      <path id="NotoSansCJKjp-Regular-bcc0" d="M 1133 3469 
L 2694 3469 
L 2694 2419 
L 1133 2419 
L 1133 3469 
z
M 4550 3795 
L 4550 2982 
L 3219 2982 
L 3219 3795 
L 4550 3795 
z
M 602 4902 
L 602 1990 
L 3219 1990 
L 3219 2547 
L 4550 2547 
L 4550 1005 
L 5082 1005 
L 5082 5286 
L 4550 5286 
L 4550 4230 
L 3219 4230 
L 3219 4902 
L 2694 4902 
L 2694 3885 
L 1133 3885 
L 1133 4902 
L 602 4902 
z
M 1363 1421 
L 1363 -371 
L 5216 -371 
L 5216 64 
L 1894 64 
L 1894 1421 
L 1363 1421 
z
" transform="scale(0.015625)"/>
      <path id="NotoSansCJKjp-Regular-b3d9" d="M 2931 1594 
C 1696 1594 947 1216 947 550 
C 947 -115 1696 -493 2931 -493 
C 4166 -493 4909 -115 4909 550 
C 4909 1216 4166 1594 2931 1594 
z
M 2931 1178 
C 3834 1178 4378 947 4378 550 
C 4378 147 3834 -77 2931 -77 
C 2022 -77 1485 147 1485 550 
C 1485 947 2022 1178 2931 1178 
z
M 979 5024 
L 979 3104 
L 2675 3104 
L 2675 2438 
L 320 2438 
L 320 2010 
L 5555 2010 
L 5555 2438 
L 3194 2438 
L 3194 3104 
L 4941 3104 
L 4941 3533 
L 1504 3533 
L 1504 4602 
L 4902 4602 
L 4902 5024 
L 979 5024 
z
" transform="scale(0.015625)"/>
      <path id="NotoSansCJKjp-Regular-c131" d="M 3174 1696 
C 1978 1696 1248 1293 1248 602 
C 1248 -90 1978 -486 3174 -486 
C 4371 -486 5101 -90 5101 602 
C 5101 1293 4371 1696 3174 1696 
z
M 3174 1274 
C 4045 1274 4576 1024 4576 602 
C 4576 186 4045 -64 3174 -64 
C 2304 -64 1773 186 1773 602 
C 1773 1024 2304 1274 3174 1274 
z
M 1779 4966 
L 1779 4371 
C 1779 3482 1203 2707 314 2394 
L 595 1965 
C 1293 2227 1811 2758 2054 3443 
C 2304 2842 2790 2374 3430 2138 
L 3718 2554 
C 2874 2842 2304 3571 2304 4390 
L 2304 4966 
L 1779 4966 
z
M 3290 4070 
L 3290 3629 
L 4550 3629 
L 4550 1869 
L 5082 1869 
L 5082 5293 
L 4550 5293 
L 4550 4070 
L 3290 4070 
z
" transform="scale(0.015625)"/>
     </defs>
     <use xlink:href="#NotoSansCJKjp-Regular-c911"/>
     <use xlink:href="#NotoSansCJKjp-Regular-c2ec" x="91.999985"/>
     <use xlink:href="#NotoSansCJKjp-Regular-20" x="183.999969"/>
     <use xlink:href="#NotoSansCJKjp-Regular-c635" x="206.399963"/>
     <use xlink:href="#NotoSansCJKjp-Regular-c158" x="298.399948"/>
     <use xlink:href="#NotoSansCJKjp-Regular-c758" x="390.399933"/>
     <use xlink:href="#NotoSansCJKjp-Regular-20" x="482.399918"/>
     <use xlink:href="#NotoSansCJKjp-Regular-bcc0" x="504.799911"/>
     <use xlink:href="#NotoSansCJKjp-Regular-b3d9" x="596.799896"/>
     <use xlink:href="#NotoSansCJKjp-Regular-c131" x="688.799881"/>
    </g>
   </g>
   <g id="patch_5">
    <path d="M 324 178.000263 
Q 324 185.055048 324 189.873766 
" style="fill: none; stroke: #127b79; stroke-width: 2; stroke-linecap: round"/>
    <path d="M 327 183.873766 
L 324 189.873766 
L 321 183.873766 
z
" style="fill: #127b79; stroke: #127b79; stroke-width: 2; stroke-linecap: round"/>
   </g>
   <g id="text_3">
    <!-- 02 -->
    <g style="fill: #127b79" transform="translate(80.1716 240.193634) scale(0.17 -0.17)">
     <defs>
      <path id="NotoSansCJKjp-Bold-32" d="M 275 0 
L 3450 0 
L 3450 794 
L 2426 794 
C 2202 794 1888 768 1645 736 
C 2509 1587 3226 2509 3226 3366 
C 3226 4250 2630 4826 1734 4826 
C 1088 4826 666 4576 224 4102 
L 749 3597 
C 986 3859 1267 4083 1613 4083 
C 2067 4083 2323 3789 2323 3322 
C 2323 2586 1568 1696 275 544 
L 275 0 
z
" transform="scale(0.015625)"/>
     </defs>
     <use xlink:href="#NotoSansCJKjp-Bold-30"/>
     <use xlink:href="#NotoSansCJKjp-Bold-32" x="58.999985"/>
    </g>
   </g>
   <g id="text_4">
    <!-- skew -->
    <g style="fill: #172c35" transform="translate(336.829556 228.608072) scale(0.18 -0.18)">
     <defs>
      <path id="NotoSansCJKjp-Regular-73" d="M 1498 -83 
C 2317 -83 2758 384 2758 947 
C 2758 1606 2208 1811 1702 2003 
C 1312 2150 954 2278 954 2605 
C 954 2880 1158 3110 1600 3110 
C 1907 3110 2150 2976 2387 2803 
L 2669 3168 
C 2406 3386 2022 3565 1594 3565 
C 832 3565 397 3130 397 2579 
C 397 1984 922 1754 1408 1574 
C 1792 1434 2202 1267 2202 915 
C 2202 614 1978 371 1517 371 
C 1101 371 794 538 486 787 
L 205 397 
C 531 122 1005 -83 1498 -83 
z
" transform="scale(0.015625)"/>
      <path id="NotoSansCJKjp-Regular-6b" d="M 589 0 
L 1165 0 
L 1165 915 
L 1818 1677 
L 2835 0 
L 3469 0 
L 2157 2074 
L 3315 3475 
L 2662 3475 
L 1190 1645 
L 1165 1645 
L 1165 5094 
L 589 5094 
L 589 0 
z
" transform="scale(0.015625)"/>
      <path id="NotoSansCJKjp-Regular-65" d="M 1997 -83 
C 2464 -83 2835 70 3136 269 
L 2931 659 
C 2669 486 2400 384 2061 384 
C 1402 384 947 858 909 1600 
L 3251 1600 
C 3264 1690 3277 1805 3277 1933 
C 3277 2925 2778 3565 1888 3565 
C 1094 3565 333 2867 333 1734 
C 333 589 1069 -83 1997 -83 
z
M 902 2016 
C 973 2707 1408 3098 1901 3098 
C 2445 3098 2765 2720 2765 2016 
L 902 2016 
z
" transform="scale(0.015625)"/>
      <path id="NotoSansCJKjp-Regular-77" d="M 1139 0 
L 1818 0 
L 2310 1862 
C 2400 2195 2470 2522 2547 2874 
L 2579 2874 
C 2662 2522 2726 2202 2816 1875 
L 3315 0 
L 4026 0 
L 4966 3475 
L 4403 3475 
L 3898 1466 
C 3821 1133 3757 819 3686 499 
L 3654 499 
C 3571 819 3494 1133 3411 1466 
L 2867 3475 
L 2298 3475 
L 1754 1466 
C 1670 1133 1594 819 1523 499 
L 1491 499 
C 1421 819 1357 1133 1286 1466 
L 768 3475 
L 173 3475 
L 1139 0 
z
" transform="scale(0.015625)"/>
     </defs>
     <use xlink:href="#NotoSansCJKjp-Regular-73"/>
     <use xlink:href="#NotoSansCJKjp-Regular-6b" x="46.799988"/>
     <use xlink:href="#NotoSansCJKjp-Regular-65" x="101.999985"/>
     <use xlink:href="#NotoSansCJKjp-Regular-77" x="157.399979"/>
    </g>
    <!-- 하락 보험의 상대 가격 -->
    <g style="fill: #172c35" transform="translate(277.644713 252.072478) scale(0.18 -0.18)">
     <defs>
      <path id="NotoSansCJKjp-Regular-d558" d="M 2022 3456 
C 1203 3456 608 2906 608 2125 
C 608 1338 1203 794 2022 794 
C 2835 794 3430 1338 3430 2125 
C 3430 2906 2835 3456 2022 3456 
z
M 2022 3014 
C 2541 3014 2925 2643 2925 2125 
C 2925 1600 2541 1235 2022 1235 
C 1498 1235 1114 1600 1114 2125 
C 1114 2643 1498 3014 2022 3014 
z
M 4243 5293 
L 4243 -499 
L 4768 -499 
L 4768 2470 
L 5715 2470 
L 5715 2912 
L 4768 2912 
L 4768 5293 
L 4243 5293 
z
M 1747 5222 
L 1747 4365 
L 288 4365 
L 288 3930 
L 3699 3930 
L 3699 4365 
L 2278 4365 
L 2278 5222 
L 1747 5222 
z
" transform="scale(0.015625)"/>
      <path id="NotoSansCJKjp-Regular-b77d" d="M 1050 1466 
L 1050 1030 
L 4282 1030 
L 4282 -493 
L 4813 -493 
L 4813 1466 
L 1050 1466 
z
M 557 4947 
L 557 4512 
L 2643 4512 
L 2643 3757 
L 570 3757 
L 570 2074 
L 1024 2074 
C 2099 2074 2861 2112 3776 2266 
L 3725 2701 
C 2842 2554 2106 2515 1094 2515 
L 1094 3341 
L 3162 3341 
L 3162 4947 
L 557 4947 
z
M 4282 5286 
L 4282 1773 
L 4813 1773 
L 4813 3366 
L 5670 3366 
L 5670 3808 
L 4813 3808 
L 4813 5286 
L 4282 5286 
z
" transform="scale(0.015625)"/>
      <path id="NotoSansCJKjp-Regular-bcf4" d="M 1466 3418 
L 4410 3418 
L 4410 2355 
L 1466 2355 
L 1466 3418 
z
M 934 4883 
L 934 1920 
L 2669 1920 
L 2669 678 
L 320 678 
L 320 237 
L 5568 237 
L 5568 678 
L 3194 678 
L 3194 1920 
L 4934 1920 
L 4934 4883 
L 4410 4883 
L 4410 3853 
L 1466 3853 
L 1466 4883 
L 934 4883 
z
" transform="scale(0.015625)"/>
      <path id="NotoSansCJKjp-Regular-d5d8" d="M 1325 1478 
L 1325 -422 
L 5082 -422 
L 5082 1478 
L 1325 1478 
z
M 4563 1050 
L 4563 13 
L 1850 13 
L 1850 1050 
L 4563 1050 
z
M 2003 3962 
C 1222 3962 666 3539 666 2931 
C 666 2310 1222 1901 2003 1901 
C 2784 1901 3334 2310 3334 2931 
C 3334 3539 2784 3962 2003 3962 
z
M 2003 3552 
C 2490 3552 2829 3302 2829 2931 
C 2829 2554 2490 2304 2003 2304 
C 1510 2304 1171 2554 1171 2931 
C 1171 3302 1510 3552 2003 3552 
z
M 3590 3533 
L 3590 3091 
L 4550 3091 
L 4550 1786 
L 5082 1786 
L 5082 5293 
L 4550 5293 
L 4550 3533 
L 3590 3533 
z
M 1741 5344 
L 1741 4691 
L 326 4691 
L 326 4256 
L 3674 4256 
L 3674 4691 
L 2266 4691 
L 2266 5344 
L 1741 5344 
z
" transform="scale(0.015625)"/>
      <path id="NotoSansCJKjp-Regular-c0c1" d="M 2970 1626 
C 1786 1626 1062 1235 1062 570 
C 1062 -102 1786 -486 2970 -486 
C 4147 -486 4864 -102 4864 570 
C 4864 1235 4147 1626 2970 1626 
z
M 2970 1203 
C 3827 1203 4346 966 4346 570 
C 4346 166 3827 -64 2970 -64 
C 2112 -64 1587 166 1587 570 
C 1587 966 2112 1203 2970 1203 
z
M 1728 4992 
L 1728 4403 
C 1728 3514 1165 2733 294 2413 
L 576 1990 
C 1254 2253 1760 2778 2003 3456 
C 2253 2861 2746 2387 3379 2150 
L 3661 2566 
C 2829 2854 2253 3578 2253 4358 
L 2253 4992 
L 1728 4992 
z
M 4282 5293 
L 4282 1779 
L 4813 1779 
L 4813 3347 
L 5664 3347 
L 5664 3795 
L 4813 3795 
L 4813 5293 
L 4282 5293 
z
" transform="scale(0.015625)"/>
      <path id="NotoSansCJKjp-Regular-b300" d="M 3411 5165 
L 3411 -198 
L 3904 -198 
L 3904 2534 
L 4723 2534 
L 4723 -499 
L 5229 -499 
L 5229 5293 
L 4723 5293 
L 4723 2970 
L 3904 2970 
L 3904 5165 
L 3411 5165 
z
M 525 4589 
L 525 928 
L 902 928 
C 1773 928 2355 954 3046 1101 
L 2995 1542 
C 2368 1408 1824 1382 1056 1376 
L 1056 4154 
L 2675 4154 
L 2675 4589 
L 525 4589 
z
" transform="scale(0.015625)"/>
      <path id="NotoSansCJKjp-Regular-ac00" d="M 4237 5293 
L 4237 -493 
L 4768 -493 
L 4768 2502 
L 5690 2502 
L 5690 2944 
L 4768 2944 
L 4768 5293 
L 4237 5293 
z
M 621 4672 
L 621 4230 
L 2746 4230 
C 2624 2861 1824 1754 352 1011 
L 646 602 
C 2522 1536 3277 3027 3277 4672 
L 621 4672 
z
" transform="scale(0.015625)"/>
      <path id="NotoSansCJKjp-Regular-aca9" d="M 1216 1581 
L 1216 1152 
L 4550 1152 
L 4550 -486 
L 5082 -486 
L 5082 1581 
L 1216 1581 
z
M 3046 3034 
L 3046 2598 
L 4550 2598 
L 4550 1837 
L 5082 1837 
L 5082 5286 
L 4550 5286 
L 4550 4256 
L 3277 4256 
C 3322 4461 3347 4678 3347 4902 
L 704 4902 
L 704 4467 
L 2778 4467 
C 2675 3488 1805 2720 410 2336 
L 614 1914 
C 1856 2259 2752 2912 3136 3827 
L 4550 3827 
L 4550 3034 
L 3046 3034 
z
" transform="scale(0.015625)"/>
     </defs>
     <use xlink:href="#NotoSansCJKjp-Regular-d558"/>
     <use xlink:href="#NotoSansCJKjp-Regular-b77d" x="91.999985"/>
     <use xlink:href="#NotoSansCJKjp-Regular-20" x="183.999969"/>
     <use xlink:href="#NotoSansCJKjp-Regular-bcf4" x="206.399963"/>
     <use xlink:href="#NotoSansCJKjp-Regular-d5d8" x="298.399948"/>
     <use xlink:href="#NotoSansCJKjp-Regular-c758" x="390.399933"/>
     <use xlink:href="#NotoSansCJKjp-Regular-20" x="482.399918"/>
     <use xlink:href="#NotoSansCJKjp-Regular-c0c1" x="504.799911"/>
     <use xlink:href="#NotoSansCJKjp-Regular-b300" x="596.799896"/>
     <use xlink:href="#NotoSansCJKjp-Regular-20" x="688.799881"/>
     <use xlink:href="#NotoSansCJKjp-Regular-ac00" x="711.199875"/>
     <use xlink:href="#NotoSansCJKjp-Regular-aca9" x="803.19986"/>
    </g>
   </g>
   <g id="patch_6">
    <path d="M 324 275.920263 
Q 324 282.975048 324 287.793766 
" style="fill: none; stroke: #127b79; stroke-width: 2; stroke-linecap: round"/>
    <path d="M 327 281.793766 
L 324 287.793766 
L 321 281.793766 
z
" style="fill: #127b79; stroke: #127b79; stroke-width: 2; stroke-linecap: round"/>
   </g>
   <g id="text_5">
    <!-- 03 -->
    <g style="fill: #127b79" transform="translate(80.1716 338.113634) scale(0.17 -0.17)">
     <defs>
      <path id="NotoSansCJKjp-Bold-33" d="M 1747 -90 
C 2656 -90 3418 410 3418 1280 
C 3418 1907 3008 2304 2477 2451 
L 2477 2483 
C 2976 2682 3264 3053 3264 3565 
C 3264 4378 2643 4826 1728 4826 
C 1171 4826 717 4602 307 4250 
L 794 3667 
C 1069 3930 1344 4083 1683 4083 
C 2086 4083 2317 3866 2317 3494 
C 2317 3066 2035 2771 1171 2771 
L 1171 2093 
C 2195 2093 2470 1805 2470 1338 
C 2470 915 2144 678 1664 678 
C 1229 678 890 890 608 1165 
L 166 570 
C 499 192 1005 -90 1747 -90 
z
" transform="scale(0.015625)"/>
     </defs>
     <use xlink:href="#NotoSansCJKjp-Bold-30"/>
     <use xlink:href="#NotoSansCJKjp-Bold-33" x="58.999985"/>
    </g>
   </g>
   <g id="text_6">
    <!-- term-vol -->
    <g style="fill: #172c35" transform="translate(322.187681 326.528072) scale(0.18 -0.18)">
     <defs>
      <path id="NotoSansCJKjp-Regular-74" d="M 1677 -83 
C 1894 -83 2125 -19 2323 45 
L 2208 486 
C 2093 435 1939 390 1811 390 
C 1408 390 1274 634 1274 1056 
L 1274 3002 
L 2221 3002 
L 2221 3475 
L 1274 3475 
L 1274 4454 
L 787 4454 
L 723 3475 
L 173 3443 
L 173 3002 
L 691 3002 
L 691 1075 
C 691 378 941 -83 1677 -83 
z
" transform="scale(0.015625)"/>
      <path id="NotoSansCJKjp-Regular-72" d="M 589 0 
L 1178 0 
L 1178 2234 
C 1408 2822 1760 3040 2048 3040 
C 2195 3040 2272 3021 2387 2982 
L 2496 3488 
C 2387 3546 2278 3565 2125 3565 
C 1741 3565 1382 3283 1139 2842 
L 1126 2842 
L 1069 3475 
L 589 3475 
L 589 0 
z
" transform="scale(0.015625)"/>
      <path id="NotoSansCJKjp-Regular-6d" d="M 589 0 
L 1178 0 
L 1178 2522 
C 1491 2880 1786 3053 2048 3053 
C 2490 3053 2694 2778 2694 2125 
L 2694 0 
L 3277 0 
L 3277 2522 
C 3603 2880 3885 3053 4154 3053 
C 4595 3053 4800 2778 4800 2125 
L 4800 0 
L 5382 0 
L 5382 2202 
C 5382 3085 5043 3565 4333 3565 
C 3904 3565 3546 3290 3181 2899 
C 3040 3309 2758 3565 2221 3565 
C 1805 3565 1446 3302 1139 2970 
L 1126 2970 
L 1069 3475 
L 589 3475 
L 589 0 
z
" transform="scale(0.015625)"/>
      <path id="NotoSansCJKjp-Regular-2d" d="M 294 1568 
L 1933 1568 
L 1933 2016 
L 294 2016 
L 294 1568 
z
" transform="scale(0.015625)"/>
      <path id="NotoSansCJKjp-Regular-76" d="M 1338 0 
L 2022 0 
L 3251 3475 
L 2675 3475 
L 2016 1498 
C 1914 1158 1798 806 1696 474 
L 1664 474 
C 1562 806 1453 1158 1344 1498 
L 691 3475 
L 83 3475 
L 1338 0 
z
" transform="scale(0.015625)"/>
      <path id="NotoSansCJKjp-Regular-6f" d="M 1939 -83 
C 2790 -83 3546 582 3546 1734 
C 3546 2893 2790 3565 1939 3565 
C 1088 3565 333 2893 333 1734 
C 333 582 1088 -83 1939 -83 
z
M 1939 403 
C 1338 403 934 934 934 1734 
C 934 2534 1338 3072 1939 3072 
C 2541 3072 2950 2534 2950 1734 
C 2950 934 2541 403 1939 403 
z
" transform="scale(0.015625)"/>
      <path id="NotoSansCJKjp-Regular-6c" d="M 1203 -83 
C 1363 -83 1459 -58 1542 -32 
L 1459 416 
C 1395 403 1370 403 1338 403 
C 1248 403 1178 474 1178 653 
L 1178 5094 
L 589 5094 
L 589 691 
C 589 198 768 -83 1203 -83 
z
" transform="scale(0.015625)"/>
     </defs>
     <use xlink:href="#NotoSansCJKjp-Regular-74"/>
     <use xlink:href="#NotoSansCJKjp-Regular-65" x="37.699997"/>
     <use xlink:href="#NotoSansCJKjp-Regular-72" x="93.099991"/>
     <use xlink:href="#NotoSansCJKjp-Regular-6d" x="131.899979"/>
     <use xlink:href="#NotoSansCJKjp-Regular-2d" x="224.499969"/>
     <use xlink:href="#NotoSansCJKjp-Regular-76" x="259.199966"/>
     <use xlink:href="#NotoSansCJKjp-Regular-6f" x="311.299957"/>
     <use xlink:href="#NotoSansCJKjp-Regular-6c" x="371.899948"/>
    </g>
    <!-- 짧은 만기와 긴 만기 -->
    <g style="fill: #172c35" transform="translate(285.924712 349.992478) scale(0.18 -0.18)">
     <defs>
      <path id="NotoSansCJKjp-Regular-c9e7" d="M 3091 1965 
L 3091 -435 
L 4928 -435 
L 4928 1965 
L 4454 1965 
L 4454 1222 
L 3584 1222 
L 3584 1965 
L 3091 1965 
z
M 3584 819 
L 4454 819 
L 4454 -19 
L 3584 -19 
L 3584 819 
z
M 2336 4966 
L 2336 4531 
L 2739 4531 
L 2739 4205 
C 2739 3821 2611 3251 2214 2880 
C 1805 3264 1683 3853 1683 4205 
L 1683 4531 
L 2093 4531 
L 2093 4966 
L 461 4966 
L 461 4531 
L 1184 4531 
L 1184 4205 
C 1184 3744 896 3066 262 2752 
L 525 2368 
C 973 2586 1261 2976 1414 3392 
C 1536 2970 1773 2547 2208 2310 
C 2650 2547 2886 2963 3008 3386 
C 3162 2970 3450 2579 3904 2368 
L 4166 2752 
C 3526 3059 3245 3718 3245 4205 
L 3245 4531 
L 3942 4531 
L 3942 4966 
L 2336 4966 
z
M 4403 5293 
L 4403 2278 
L 4928 2278 
L 4928 3622 
L 5664 3622 
L 5664 4070 
L 4928 4070 
L 4928 5293 
L 4403 5293 
z
M 947 -26 
L 947 -435 
L 1248 -435 
C 1984 -435 2387 -429 2918 -326 
L 2874 77 
C 2413 -13 2054 -26 1459 -26 
L 1459 589 
L 2746 589 
L 2746 1907 
L 934 1907 
L 934 1510 
L 2234 1510 
L 2234 973 
L 947 973 
L 947 -26 
z
" transform="scale(0.015625)"/>
      <path id="NotoSansCJKjp-Regular-c740" d="M 320 2246 
L 320 1818 
L 5549 1818 
L 5549 2246 
L 320 2246 
z
M 2931 5094 
C 1690 5094 896 4666 896 3942 
C 896 3219 1690 2784 2931 2784 
C 4173 2784 4966 3219 4966 3942 
C 4966 4666 4173 5094 2931 5094 
z
M 2931 4666 
C 3846 4666 4422 4390 4422 3942 
C 4422 3488 3846 3219 2931 3219 
C 2022 3219 1440 3488 1440 3942 
C 1440 4390 2022 4666 2931 4666 
z
M 992 1306 
L 992 -371 
L 4966 -371 
L 4966 64 
L 1523 64 
L 1523 1306 
L 992 1306 
z
" transform="scale(0.015625)"/>
      <path id="NotoSansCJKjp-Regular-b9cc" d="M 557 4768 
L 557 2093 
L 3219 2093 
L 3219 4768 
L 557 4768 
z
M 2701 4339 
L 2701 2522 
L 1075 2522 
L 1075 4339 
L 2701 4339 
z
M 4282 5293 
L 4282 1050 
L 4813 1050 
L 4813 3091 
L 5664 3091 
L 5664 3533 
L 4813 3533 
L 4813 5293 
L 4282 5293 
z
M 1210 1453 
L 1210 -371 
L 5069 -371 
L 5069 64 
L 1734 64 
L 1734 1453 
L 1210 1453 
z
" transform="scale(0.015625)"/>
      <path id="NotoSansCJKjp-Regular-ae30" d="M 4538 5293 
L 4538 -499 
L 5069 -499 
L 5069 5293 
L 4538 5293 
z
M 659 4666 
L 659 4237 
L 2829 4237 
C 2720 2854 1939 1754 390 1011 
L 672 582 
C 2611 1523 3366 2995 3366 4666 
L 659 4666 
z
" transform="scale(0.015625)"/>
      <path id="NotoSansCJKjp-Regular-c640" d="M 2048 4461 
C 2630 4461 3059 4096 3059 3552 
C 3059 3014 2630 2643 2048 2643 
C 1459 2643 1030 3014 1030 3552 
C 1030 4096 1459 4461 2048 4461 
z
M 333 755 
C 1344 749 2694 762 3910 973 
L 3872 1370 
C 3379 1306 2848 1261 2317 1235 
L 2317 2214 
C 3059 2310 3578 2829 3578 3552 
C 3578 4358 2931 4915 2048 4915 
C 1152 4915 512 4358 512 3552 
C 512 2829 1030 2310 1786 2214 
L 1786 1216 
C 1235 1203 710 1197 250 1197 
L 333 755 
z
M 4237 5293 
L 4237 -499 
L 4762 -499 
L 4762 2458 
L 5683 2458 
L 5683 2906 
L 4762 2906 
L 4762 5293 
L 4237 5293 
z
" transform="scale(0.015625)"/>
      <path id="NotoSansCJKjp-Regular-ae34" d="M 4525 5286 
L 4525 1082 
L 5056 1082 
L 5056 5286 
L 4525 5286 
z
M 717 4851 
L 717 4410 
L 2810 4410 
C 2701 3386 1805 2566 416 2138 
L 627 1709 
C 2323 2234 3386 3347 3386 4851 
L 717 4851 
z
M 1312 1421 
L 1312 -371 
L 5203 -371 
L 5203 64 
L 1843 64 
L 1843 1421 
L 1312 1421 
z
" transform="scale(0.015625)"/>
     </defs>
     <use xlink:href="#NotoSansCJKjp-Regular-c9e7"/>
     <use xlink:href="#NotoSansCJKjp-Regular-c740" x="91.999985"/>
     <use xlink:href="#NotoSansCJKjp-Regular-20" x="183.999969"/>
     <use xlink:href="#NotoSansCJKjp-Regular-b9cc" x="206.399963"/>
     <use xlink:href="#NotoSansCJKjp-Regular-ae30" x="298.399948"/>
     <use xlink:href="#NotoSansCJKjp-Regular-c640" x="390.399933"/>
     <use xlink:href="#NotoSansCJKjp-Regular-20" x="482.399918"/>
     <use xlink:href="#NotoSansCJKjp-Regular-ae34" x="504.799911"/>
     <use xlink:href="#NotoSansCJKjp-Regular-20" x="596.799896"/>
     <use xlink:href="#NotoSansCJKjp-Regular-b9cc" x="619.19989"/>
     <use xlink:href="#NotoSansCJKjp-Regular-ae30" x="711.199875"/>
    </g>
   </g>
  </g>
  <g id="text_7">
   <!-- 변동성 표면의 세 방향 -->
   <g style="fill: #172c35" transform="translate(42.12 41.879375) scale(0.2 -0.2)">
    <defs>
     <path id="NotoSansCJKjp-Bold-bcc0" d="M 1350 3418 
L 2477 3418 
L 2477 2586 
L 1350 2586 
L 1350 3418 
z
M 4365 3693 
L 4365 3098 
L 3315 3098 
L 3315 3693 
L 4365 3693 
z
M 506 4966 
L 506 1907 
L 3315 1907 
L 3315 2419 
L 4365 2419 
L 4365 986 
L 5222 986 
L 5222 5357 
L 4365 5357 
L 4365 4371 
L 3315 4371 
L 3315 4966 
L 2477 4966 
L 2477 4070 
L 1350 4070 
L 1350 4966 
L 506 4966 
z
M 1299 1414 
L 1299 -467 
L 5350 -467 
L 5350 218 
L 2150 218 
L 2150 1414 
L 1299 1414 
z
" transform="scale(0.015625)"/>
     <path id="NotoSansCJKjp-Bold-b3d9" d="M 2925 1606 
C 1645 1606 870 1210 870 512 
C 870 -179 1645 -576 2925 -576 
C 4205 -576 4986 -179 4986 512 
C 4986 1210 4205 1606 2925 1606 
z
M 2925 960 
C 3718 960 4122 819 4122 512 
C 4122 211 3718 70 2925 70 
C 2131 70 1728 211 1728 512 
C 1728 819 2131 960 2925 960 
z
M 915 5107 
L 915 3066 
L 2522 3066 
L 2522 2573 
L 269 2573 
L 269 1901 
L 5626 1901 
L 5626 2573 
L 3373 2573 
L 3373 3066 
L 5018 3066 
L 5018 3731 
L 1760 3731 
L 1760 4435 
L 4986 4435 
L 4986 5107 
L 915 5107 
z
" transform="scale(0.015625)"/>
     <path id="NotoSansCJKjp-Bold-c131" d="M 3213 1734 
C 1958 1734 1184 1312 1184 589 
C 1184 -147 1958 -570 3213 -570 
C 4467 -570 5242 -147 5242 589 
C 5242 1312 4467 1734 3213 1734 
z
M 3213 1075 
C 3981 1075 4390 915 4390 589 
C 4390 250 3981 90 3213 90 
C 2438 90 2029 250 2029 589 
C 2029 915 2438 1075 3213 1075 
z
M 1638 5050 
L 1638 4525 
C 1638 3706 1216 2906 205 2586 
L 653 1901 
C 1357 2138 1830 2611 2086 3213 
C 2336 2694 2765 2291 3386 2074 
L 3827 2739 
C 2886 3040 2502 3770 2502 4563 
L 2502 5050 
L 1638 5050 
z
M 3283 4282 
L 3283 3590 
L 4365 3590 
L 4365 1888 
L 5222 1888 
L 5222 5357 
L 4365 5357 
L 4365 4282 
L 3283 4282 
z
" transform="scale(0.015625)"/>
     <path id="NotoSansCJKjp-Bold-20" transform="scale(0.015625)"/>
     <path id="NotoSansCJKjp-Bold-d45c" d="M 704 2554 
L 704 1882 
L 1581 1882 
L 1581 768 
L 262 768 
L 262 83 
L 5632 83 
L 5632 768 
L 4288 768 
L 4288 1882 
L 5171 1882 
L 5171 2554 
L 4384 2554 
L 4384 4211 
L 5190 4211 
L 5190 4896 
L 672 4896 
L 672 4211 
L 1478 4211 
L 1478 2554 
L 704 2554 
z
M 2426 768 
L 2426 1882 
L 3443 1882 
L 3443 768 
L 2426 768 
z
M 2330 4211 
L 3533 4211 
L 3533 2554 
L 2330 2554 
L 2330 4211 
z
" transform="scale(0.015625)"/>
     <path id="NotoSansCJKjp-Bold-ba74" d="M 2470 4218 
L 2470 2656 
L 1338 2656 
L 1338 4218 
L 2470 4218 
z
M 3302 3750 
L 4365 3750 
L 4365 3155 
L 3302 3155 
L 3302 3750 
z
M 4365 5357 
L 4365 4429 
L 3302 4429 
L 3302 4883 
L 499 4883 
L 499 1984 
L 3302 1984 
L 3302 2477 
L 4365 2477 
L 4365 1043 
L 5222 1043 
L 5222 5357 
L 4365 5357 
z
M 1299 1446 
L 1299 -467 
L 5350 -467 
L 5350 218 
L 2150 218 
L 2150 1446 
L 1299 1446 
z
" transform="scale(0.015625)"/>
     <path id="NotoSansCJKjp-Bold-c758" d="M 2170 4966 
C 1235 4966 531 4358 531 3507 
C 531 2656 1235 2048 2170 2048 
C 3098 2048 3795 2656 3795 3507 
C 3795 4358 3098 4966 2170 4966 
z
M 2170 4237 
C 2618 4237 2963 3974 2963 3507 
C 2963 3046 2618 2771 2170 2771 
C 1709 2771 1363 3046 1363 3507 
C 1363 3974 1709 4237 2170 4237 
z
M 4352 5370 
L 4352 -576 
L 5203 -576 
L 5203 5370 
L 4352 5370 
z
M 384 621 
C 1414 621 2803 640 4090 890 
L 4032 1504 
C 2778 1325 1325 1312 288 1312 
L 384 621 
z
" transform="scale(0.015625)"/>
     <path id="NotoSansCJKjp-Bold-c138" d="M 4544 5363 
L 4544 -563 
L 5350 -563 
L 5350 5363 
L 4544 5363 
z
M 3334 5267 
L 3334 3366 
L 2592 3366 
L 2592 2675 
L 3334 2675 
L 3334 -301 
L 4128 -301 
L 4128 5267 
L 3334 5267 
z
M 1331 4845 
L 1331 3853 
C 1331 2842 1018 1786 147 1254 
L 659 614 
C 1190 941 1542 1498 1747 2157 
C 1933 1562 2253 1050 2746 742 
L 3213 1408 
C 2406 1933 2150 2925 2150 3891 
L 2150 4845 
L 1331 4845 
z
" transform="scale(0.015625)"/>
     <path id="NotoSansCJKjp-Bold-bc29" d="M 2989 1741 
C 1760 1741 979 1306 979 582 
C 979 -147 1760 -576 2989 -576 
C 4218 -576 4992 -147 4992 582 
C 4992 1306 4218 1741 2989 1741 
z
M 2989 1069 
C 3744 1069 4147 915 4147 582 
C 4147 243 3744 83 2989 83 
C 2234 83 1830 243 1830 582 
C 1830 915 2234 1069 2989 1069 
z
M 429 4986 
L 429 2195 
L 3277 2195 
L 3277 4986 
L 2438 4986 
L 2438 4250 
L 1274 4250 
L 1274 4986 
L 429 4986 
z
M 1274 3597 
L 2438 3597 
L 2438 2861 
L 1274 2861 
L 1274 3597 
z
M 4070 5357 
L 4070 1869 
L 4922 1869 
L 4922 3283 
L 5709 3283 
L 5709 3981 
L 4922 3981 
L 4922 5357 
L 4070 5357 
z
" transform="scale(0.015625)"/>
     <path id="NotoSansCJKjp-Bold-d5a5" d="M 3002 1542 
C 1773 1542 1005 1146 1005 486 
C 1005 -179 1773 -570 3002 -570 
C 4224 -570 4986 -179 4986 486 
C 4986 1146 4224 1542 3002 1542 
z
M 3002 896 
C 3744 896 4141 768 4141 486 
C 4141 205 3744 64 3002 64 
C 2253 64 1856 205 1856 486 
C 1856 768 2253 896 3002 896 
z
M 2003 3936 
C 1146 3936 544 3507 544 2874 
C 544 2240 1146 1818 2003 1818 
C 2861 1818 3462 2240 3462 2874 
C 3462 3507 2861 3936 2003 3936 
z
M 2003 3322 
C 2387 3322 2643 3168 2643 2874 
C 2643 2586 2387 2438 2003 2438 
C 1626 2438 1363 2586 1363 2874 
C 1363 3168 1626 3322 2003 3322 
z
M 4070 5357 
L 4070 1600 
L 4922 1600 
L 4922 2528 
L 5683 2528 
L 5683 3219 
L 4922 3219 
L 4922 3814 
L 5683 3814 
L 5683 4512 
L 4922 4512 
L 4922 5357 
L 4070 5357 
z
M 1581 5402 
L 1581 4800 
L 262 4800 
L 262 4134 
L 3744 4134 
L 3744 4800 
L 2426 4800 
L 2426 5402 
L 1581 5402 
z
" transform="scale(0.015625)"/>
    </defs>
    <use xlink:href="#NotoSansCJKjp-Bold-bcc0"/>
    <use xlink:href="#NotoSansCJKjp-Bold-b3d9" x="91.999985"/>
    <use xlink:href="#NotoSansCJKjp-Bold-c131" x="183.999969"/>
    <use xlink:href="#NotoSansCJKjp-Bold-20" x="275.999954"/>
    <use xlink:href="#NotoSansCJKjp-Bold-d45c" x="298.699951"/>
    <use xlink:href="#NotoSansCJKjp-Bold-ba74" x="390.699936"/>
    <use xlink:href="#NotoSansCJKjp-Bold-c758" x="482.699921"/>
    <use xlink:href="#NotoSansCJKjp-Bold-20" x="574.699905"/>
    <use xlink:href="#NotoSansCJKjp-Bold-c138" x="597.399902"/>
    <use xlink:href="#NotoSansCJKjp-Bold-20" x="689.399887"/>
    <use xlink:href="#NotoSansCJKjp-Bold-bc29" x="712.099884"/>
    <use xlink:href="#NotoSansCJKjp-Bold-d5a5" x="804.099869"/>
   </g>
  </g>
  <g id="text_8">
   <!-- INVESTING ON MY OWN  /  17.2  /  2026-09-22 -->
   <g style="fill: #67767a" transform="translate(42.12 408.24) scale(0.09 -0.09)">
    <defs>
     <path id="NotoSansCJKjp-Regular-4e" d="M 646 0 
L 1203 0 
L 1203 2464 
C 1203 2957 1158 3456 1133 3930 
L 1158 3930 
L 1664 2963 
L 3373 0 
L 3981 0 
L 3981 4691 
L 3418 4691 
L 3418 2253 
C 3418 1766 3462 1235 3501 768 
L 3469 768 
L 2963 1734 
L 1248 4691 
L 646 4691 
L 646 0 
z
" transform="scale(0.015625)"/>
     <path id="NotoSansCJKjp-Regular-45" d="M 646 0 
L 3418 0 
L 3418 506 
L 1235 506 
L 1235 2214 
L 3014 2214 
L 3014 2720 
L 1235 2720 
L 1235 4192 
L 3347 4192 
L 3347 4691 
L 646 4691 
L 646 0 
z
" transform="scale(0.015625)"/>
     <path id="NotoSansCJKjp-Regular-53" d="M 1946 -83 
C 2925 -83 3539 506 3539 1248 
C 3539 1946 3117 2266 2573 2502 
L 1907 2790 
C 1542 2944 1126 3117 1126 3578 
C 1126 3994 1472 4256 2003 4256 
C 2438 4256 2784 4090 3072 3821 
L 3379 4198 
C 3053 4538 2560 4774 2003 4774 
C 1152 4774 525 4256 525 3533 
C 525 2848 1043 2515 1478 2330 
L 2150 2035 
C 2598 1837 2938 1683 2938 1197 
C 2938 742 2573 435 1952 435 
C 1466 435 992 666 659 1018 
L 307 608 
C 710 186 1280 -83 1946 -83 
z
" transform="scale(0.015625)"/>
     <path id="NotoSansCJKjp-Regular-47" d="M 2490 -83 
C 3117 -83 3635 147 3936 461 
L 3936 2432 
L 2394 2432 
L 2394 1939 
L 3392 1939 
L 3392 710 
C 3206 538 2880 435 2547 435 
C 1542 435 979 1178 979 2362 
C 979 3533 1594 4256 2541 4256 
C 3008 4256 3315 4058 3552 3814 
L 3872 4198 
C 3603 4480 3174 4774 2522 4774 
C 1280 4774 371 3859 371 2342 
C 371 819 1254 -83 2490 -83 
z
" transform="scale(0.015625)"/>
     <path id="NotoSansCJKjp-Regular-4f" d="M 2374 -83 
C 3552 -83 4378 858 4378 2362 
C 4378 3866 3552 4774 2374 4774 
C 1197 4774 371 3866 371 2362 
C 371 858 1197 -83 2374 -83 
z
M 2374 435 
C 1530 435 979 1190 979 2362 
C 979 3533 1530 4256 2374 4256 
C 3219 4256 3770 3533 3770 2362 
C 3770 1190 3219 435 2374 435 
z
" transform="scale(0.015625)"/>
     <path id="NotoSansCJKjp-Regular-59" d="M 1402 0 
L 1990 0 
L 1990 1818 
L 3405 4691 
L 2790 4691 
L 2189 3366 
C 2042 3021 1882 2688 1715 2336 
L 1690 2336 
C 1523 2688 1382 3021 1229 3366 
L 621 4691 
L -6 4691 
L 1402 1818 
L 1402 0 
z
" transform="scale(0.015625)"/>
     <path id="NotoSansCJKjp-Regular-57" d="M 1158 0 
L 1862 0 
L 2560 2829 
C 2637 3200 2726 3539 2797 3898 
L 2822 3898 
C 2899 3539 2970 3200 3053 2829 
L 3763 0 
L 4480 0 
L 5446 4691 
L 4883 4691 
L 4378 2138 
C 4294 1632 4205 1126 4122 614 
L 4083 614 
C 3968 1126 3866 1638 3750 2138 
L 3098 4691 
L 2554 4691 
L 1907 2138 
C 1792 1632 1677 1126 1574 614 
L 1549 614 
C 1453 1126 1363 1632 1267 2138 
L 774 4691 
L 166 4691 
L 1158 0 
z
" transform="scale(0.015625)"/>
     <path id="NotoSansCJKjp-Regular-2f" d="M 70 -1146 
L 499 -1146 
L 2413 5082 
L 1990 5082 
L 70 -1146 
z
" transform="scale(0.015625)"/>
     <path id="NotoSansCJKjp-Regular-31" d="M 563 0 
L 3136 0 
L 3136 486 
L 2195 486 
L 2195 4691 
L 1747 4691 
C 1491 4544 1190 4435 774 4358 
L 774 3987 
L 1613 3987 
L 1613 486 
L 563 486 
L 563 0 
z
" transform="scale(0.015625)"/>
     <path id="NotoSansCJKjp-Regular-37" d="M 1267 0 
L 1875 0 
C 1952 1837 2150 2931 3251 4339 
L 3251 4691 
L 314 4691 
L 314 4192 
L 2592 4192 
C 1670 2912 1350 1779 1267 0 
z
" transform="scale(0.015625)"/>
     <path id="NotoSansCJKjp-Regular-2e" d="M 890 -83 
C 1120 -83 1312 96 1312 358 
C 1312 627 1120 806 890 806 
C 653 806 467 627 467 358 
C 467 96 653 -83 890 -83 
z
" transform="scale(0.015625)"/>
     <path id="NotoSansCJKjp-Regular-32" d="M 282 0 
L 3232 0 
L 3232 506 
L 1933 506 
C 1696 506 1408 480 1165 461 
C 2266 1504 3008 2458 3008 3398 
C 3008 4230 2477 4774 1638 4774 
C 1043 4774 634 4506 256 4090 
L 595 3757 
C 858 4070 1184 4301 1568 4301 
C 2150 4301 2432 3910 2432 3373 
C 2432 2566 1754 1632 282 346 
L 282 0 
z
" transform="scale(0.015625)"/>
     <path id="NotoSansCJKjp-Regular-30" d="M 1779 -83 
C 2669 -83 3238 723 3238 2362 
C 3238 3987 2669 4774 1779 4774 
C 883 4774 320 3987 320 2362 
C 320 723 883 -83 1779 -83 
z
M 1779 390 
C 1248 390 883 986 883 2362 
C 883 3731 1248 4314 1779 4314 
C 2310 4314 2675 3731 2675 2362 
C 2675 986 2310 390 1779 390 
z
" transform="scale(0.015625)"/>
     <path id="NotoSansCJKjp-Regular-36" d="M 1926 -83 
C 2656 -83 3277 531 3277 1440 
C 3277 2426 2765 2912 1971 2912 
C 1606 2912 1197 2701 909 2349 
C 934 3802 1466 4294 2118 4294 
C 2400 4294 2682 4154 2861 3936 
L 3194 4294 
C 2931 4576 2579 4774 2093 4774 
C 1184 4774 358 4077 358 2240 
C 358 691 1030 -83 1926 -83 
z
M 922 1882 
C 1229 2317 1587 2477 1875 2477 
C 2445 2477 2720 2074 2720 1440 
C 2720 800 2374 378 1926 378 
C 1338 378 986 909 922 1882 
z
" transform="scale(0.015625)"/>
     <path id="NotoSansCJKjp-Regular-39" d="M 1504 -83 
C 2381 -83 3206 646 3206 2547 
C 3206 4038 2528 4774 1626 4774 
C 896 4774 282 4166 282 3251 
C 282 2285 794 1779 1574 1779 
C 1965 1779 2368 2003 2656 2349 
C 2611 896 2086 403 1485 403 
C 1178 403 896 538 691 762 
L 371 397 
C 634 122 992 -83 1504 -83 
z
M 2650 2842 
C 2336 2394 1984 2214 1670 2214 
C 1114 2214 832 2624 832 3251 
C 832 3898 1178 4320 1632 4320 
C 2227 4320 2586 3808 2650 2842 
z
" transform="scale(0.015625)"/>
    </defs>
    <use xlink:href="#NotoSansCJKjp-Regular-49"/>
    <use xlink:href="#NotoSansCJKjp-Regular-4e" x="29.299988"/>
    <use xlink:href="#NotoSansCJKjp-Regular-56" x="101.599976"/>
    <use xlink:href="#NotoSansCJKjp-Regular-45" x="159.09996"/>
    <use xlink:href="#NotoSansCJKjp-Regular-53" x="217.999954"/>
    <use xlink:href="#NotoSansCJKjp-Regular-54" x="277.599945"/>
    <use xlink:href="#NotoSansCJKjp-Regular-49" x="337.499939"/>
    <use xlink:href="#NotoSansCJKjp-Regular-4e" x="366.799927"/>
    <use xlink:href="#NotoSansCJKjp-Regular-47" x="439.099915"/>
    <use xlink:href="#NotoSansCJKjp-Regular-20" x="507.999908"/>
    <use xlink:href="#NotoSansCJKjp-Regular-4f" x="530.399902"/>
    <use xlink:href="#NotoSansCJKjp-Regular-4e" x="604.599884"/>
    <use xlink:href="#NotoSansCJKjp-Regular-20" x="676.899872"/>
    <use xlink:href="#NotoSansCJKjp-Regular-4d" x="699.299866"/>
    <use xlink:href="#NotoSansCJKjp-Regular-59" x="780.499847"/>
    <use xlink:href="#NotoSansCJKjp-Regular-20" x="833.599838"/>
    <use xlink:href="#NotoSansCJKjp-Regular-4f" x="855.999832"/>
    <use xlink:href="#NotoSansCJKjp-Regular-57" x="930.199814"/>
    <use xlink:href="#NotoSansCJKjp-Regular-4e" x="1017.999802"/>
    <use xlink:href="#NotoSansCJKjp-Regular-20" x="1090.299789"/>
    <use xlink:href="#NotoSansCJKjp-Regular-20" x="1112.699783"/>
    <use xlink:href="#NotoSansCJKjp-Regular-2f" x="1135.099777"/>
    <use xlink:href="#NotoSansCJKjp-Regular-20" x="1174.299774"/>
    <use xlink:href="#NotoSansCJKjp-Regular-20" x="1196.699768"/>
    <use xlink:href="#NotoSansCJKjp-Regular-31" x="1219.099762"/>
    <use xlink:href="#NotoSansCJKjp-Regular-37" x="1274.599747"/>
    <use xlink:href="#NotoSansCJKjp-Regular-2e" x="1330.099731"/>
    <use xlink:href="#NotoSansCJKjp-Regular-32" x="1357.899719"/>
    <use xlink:href="#NotoSansCJKjp-Regular-20" x="1413.399704"/>
    <use xlink:href="#NotoSansCJKjp-Regular-20" x="1435.799698"/>
    <use xlink:href="#NotoSansCJKjp-Regular-2f" x="1458.199692"/>
    <use xlink:href="#NotoSansCJKjp-Regular-20" x="1497.399689"/>
    <use xlink:href="#NotoSansCJKjp-Regular-20" x="1519.799683"/>
    <use xlink:href="#NotoSansCJKjp-Regular-32" x="1542.199677"/>
    <use xlink:href="#NotoSansCJKjp-Regular-30" x="1597.699661"/>
    <use xlink:href="#NotoSansCJKjp-Regular-32" x="1653.199646"/>
    <use xlink:href="#NotoSansCJKjp-Regular-36" x="1708.699631"/>
    <use xlink:href="#NotoSansCJKjp-Regular-2d" x="1764.199615"/>
    <use xlink:href="#NotoSansCJKjp-Regular-30" x="1798.899612"/>
    <use xlink:href="#NotoSansCJKjp-Regular-39" x="1854.399597"/>
    <use xlink:href="#NotoSansCJKjp-Regular-2d" x="1909.899582"/>
    <use xlink:href="#NotoSansCJKjp-Regular-32" x="1944.599579"/>
    <use xlink:href="#NotoSansCJKjp-Regular-32" x="2000.099564"/>
   </g>
  </g>
 </g>
 <defs>
  <clipPath id="pe8b97433e2">
   <rect x="38.88" y="86.4" width="570.24" height="293.76"/>
  </clipPath>
 </defs>
</svg>
